<?xml version="1.0" encoding="utf-8"?>
<svg viewBox="0 0 200 200" xmlns="http://www.w3.org/2000/svg">
  <defs>
    <marker id="arrowhead" viewBox="0 0 20 20" overflow="visible" orient="auto-start-reverse" refX="20" refY="10" markerWidth="6" markerHeight="6">
      <title>Arrowhead</title>
      <path d="M 0 0 L 20 10 L 0 20 z" stroke="rgb(233, 235, 252)" fill="rgb(233, 235, 252)"/>
    </marker>
  </defs>
  <line style="stroke-width: 2px; stroke-linecap: square; stroke: rgb(233, 235, 252);" x1="40" y1="20" x2="40" y2="180"/>
  <line style="stroke-width: 2px; stroke: rgb(233, 235, 252);" x1="40" y1="180" x2="160" y2="180"/>
  <line style="stroke-width: 2px; stroke-linecap: square; stroke: rgb(233, 235, 252);" x1="160" y1="20" x2="160" y2="180"/>
  <line style="stroke-width: 2px; stroke-linecap: square; stroke: rgb(233, 235, 252);" x1="40" y1="20" x2="160" y2="20"/>
  <line style="stroke: rgb(233, 235, 252);" x1="40" y1="40" x2="60" y2="40"/>
  <line style="stroke-linecap: square; stroke: rgb(233, 235, 252);" x1="60" y1="40" x2="60" y2="80"/>
  <line style="stroke: rgb(233, 235, 252);" x1="40" y1="80" x2="60" y2="80"/>
  <line style="stroke: rgb(233, 235, 252);" x1="40" y1="120" x2="60" y2="120"/>
  <line style="stroke: rgb(233, 235, 252);" x1="60" y1="120" x2="60" y2="160"/>
  <line style="stroke: rgb(233, 235, 252);" x1="40" y1="160" x2="60" y2="160"/>
  <line style="stroke: rgb(233, 235, 252);" x1="140" y1="40" x2="160" y2="40"/>
  <line style="stroke-linecap: square; stroke: rgb(233, 235, 252);" x1="140" y1="40" x2="140" y2="80"/>
  <line style="stroke: rgb(233, 235, 252);" x1="140" y1="80" x2="160" y2="80"/>
  <line style="stroke: rgb(233, 235, 252);" x1="140" y1="120" x2="160" y2="120"/>
  <line style="stroke-linecap: square; stroke: rgb(233, 235, 252);" x1="140" y1="120" x2="140" y2="160"/>
  <line style="stroke: rgb(233, 235, 252);" x1="140" y1="160" x2="160" y2="160"/>
  <line style="stroke-linecap: square; stroke: rgb(233, 235, 252);" x1="80" y1="20" x2="80" y2="40"/>
  <line style="stroke-linecap: square; stroke: rgb(233, 235, 252);" x1="80" y1="40" x2="120" y2="40"/>
  <line style="stroke-linecap: square; stroke: rgb(233, 235, 252);" x1="120" y1="20" x2="120" y2="40"/>
  <text style="fill: rgb(233, 235, 252); font-family: Roboto; font-size: 12px; white-space: pre;" x="83.111" y="34.48">out(o)</text>
  <text transform="matrix(1, 0, 0, 1, 65.447281, -12.861673)" style="fill: rgb(233, 235, 252); font-family: Roboto; font-size: 12px; text-anchor: middle; white-space: pre;"><tspan x="84.396" y="71.587">3</tspan><tspan x="84.396" dy="1em">​</tspan><tspan>(s)</tspan></text>
  <text transform="matrix(1, 0, 0, 1, -35.211651, -14.44617)" style="fill: rgb(51, 51, 51); font-family: Roboto; font-size: 12px; stroke: rgb(233, 235, 252); text-anchor: middle; white-space: pre;"><tspan x="84.396" y="71.587">1</tspan><tspan x="84.396" dy="1em">​</tspan><tspan>(s)</tspan></text>
  <text transform="matrix(1, 0, 0, 1, -35.211651, -14.44617)" style="fill: rgb(233, 235, 252); font-family: Roboto; font-size: 12px; text-anchor: middle; white-space: pre;"><tspan x="84.396" y="71.587">1</tspan><tspan x="84.396" dy="1em">​</tspan><tspan>(s)</tspan></text>
  <text transform="matrix(1, 0, 0, 1, -34.02327, 66.341644)" style="fill: rgb(233, 235, 252); font-family: Roboto; font-size: 12px; text-anchor: middle; white-space: pre;"><tspan x="84.396" y="71.587">2</tspan><tspan x="84.396" dy="1em">​</tspan><tspan>(s)</tspan></text>
  <text transform="matrix(1, 0, 0, 1, 65.286034, 65.987976)" style="fill: rgb(233, 235, 252); font-family: Roboto; font-size: 12px; text-anchor: middle; white-space: pre;"><tspan x="84.396" y="71.587">4</tspan><tspan x="84.396" dy="1em">​</tspan><tspan>(s)</tspan></text>
  <line style="marker-end: url(#arrowhead); stroke-dasharray: 2px; stroke: rgb(233, 235, 252);" x1="60" y1="60" x2="140" y2="60"/>
  <line style="stroke-dasharray: 2px; marker-end: url(#arrowhead); stroke: rgb(233, 235, 252);" x1="43.021" y1="60.19" x2="123.021" y2="140.19" transform="matrix(1, 0, 0, 1, 16.978634, -0.190379)"/>
  <path style="fill: none; stroke-dasharray: 2px; marker-end: url(#arrowhead); stroke: rgb(233, 235, 252);" d="M 60.345 59.907 C 93.15 97.385 69.657 132.105 60.44 142.385"/>
  <line style="stroke-dasharray: 2px; marker-end: url(#arrowhead); stroke: rgb(233, 235, 252);" x1="7.404543547492711" y1="59.907001495361335" x2="40.00000000000001" y2="60.00000000000001"/>
  <line style="stroke-dasharray: 2px; marker-end: url(#arrowhead); stroke: rgb(233, 235, 252);" x1="160" y1="59.907001495361335" x2="193.3047150027292" y2="59.907001495361335"/>
  <line style="marker-end: url(#arrowhead); stroke-dasharray: 2px; stroke: rgb(233, 235, 252);" x1="39.99999856948853" y1="142.3849983215332" x2="7.404543399810795" y2="142.3849983215332"/>
  <line style="marker-end: url(#arrowhead); stroke-dasharray: 2px; stroke: rgb(233, 235, 252);" x1="160" y1="142.38499450683594" x2="193.30471801757812" y2="142.3849983215332"/>
  <path style="stroke-dasharray: 2px; fill: none; stroke: rgb(233, 235, 252);" d="M 60.868 59.996 C 60.49 62.952 91.246 54.417 92.052 48.121"/>
  <line style="stroke: rgb(233, 235, 252);" x1="92.052" y1="43.696" x2="92.052" y2="51.752"/>
  <line style="stroke: rgb(233, 235, 252);" x1="88" y1="48" x2="96" y2="48"/>
</svg>