<?xml version="1.0" encoding="utf-8"?>
<svg viewBox="0 0 200 200" xmlns="http://www.w3.org/2000/svg">
  <defs>
    <marker id="arrowhead" viewBox="0 0 20 20" overflow="visible" orient="auto-start-reverse" refX="20" refY="10" markerWidth="6" markerHeight="6">
      <title>Arrowhead</title>
      <path d="M 0 0 L 20 10 L 0 20 z" stroke="rgb(233, 235, 252)" fill="rgb(233, 235, 252)"/>
    </marker>
  </defs>
  <line style="stroke-width: 2px; stroke-linecap: square; stroke: rgb(233, 235, 252);" x1="40" y1="20" x2="40" y2="180"/>
  <line style="stroke-width: 2px; stroke: rgb(233, 235, 252);" x1="40" y1="180" x2="160" y2="180"/>
  <line style="stroke-width: 2px; stroke-linecap: square; stroke: rgb(233, 235, 252);" x1="160" y1="20" x2="160" y2="180"/>
  <line style="stroke-width: 2px; stroke-linecap: square; stroke: rgb(233, 235, 252);" x1="40" y1="20" x2="160" y2="20"/>
  <line style="stroke: rgb(233, 235, 252);" x1="40" y1="40" x2="60" y2="40"/>
  <line style="stroke-linecap: square; stroke: rgb(233, 235, 252);" x1="60" y1="40" x2="60" y2="80"/>
  <line style="stroke: rgb(233, 235, 252);" x1="40" y1="80" x2="60" y2="80"/>
  <line style="stroke: rgb(233, 235, 252);" x1="40" y1="120" x2="60" y2="120"/>
  <line style="stroke: rgb(233, 235, 252);" x1="60" y1="120" x2="60" y2="160"/>
  <line style="stroke: rgb(233, 235, 252);" x1="40" y1="160" x2="60" y2="160"/>
  <line style="stroke: rgb(233, 235, 252);" x1="140" y1="40" x2="160" y2="40"/>
  <line style="stroke-linecap: square; stroke: rgb(233, 235, 252);" x1="140" y1="40" x2="140" y2="80"/>
  <line style="stroke: rgb(233, 235, 252);" x1="140" y1="80" x2="160" y2="80"/>
  <line style="stroke: rgb(233, 235, 252);" x1="140" y1="120" x2="160" y2="120"/>
  <line style="stroke-linecap: square; stroke: rgb(233, 235, 252);" x1="140" y1="120" x2="140" y2="160"/>
  <line style="stroke: rgb(233, 235, 252);" x1="140" y1="160" x2="160" y2="160"/>
  <line style="stroke-linecap: square; stroke: rgb(233, 235, 252);" x1="80" y1="20" x2="80" y2="40"/>
  <line style="stroke-linecap: square; stroke: rgb(233, 235, 252);" x1="80" y1="40" x2="120" y2="40"/>
  <line style="stroke-linecap: square; stroke: rgb(233, 235, 252);" x1="120" y1="20" x2="120" y2="40"/>
  <text style="fill: rgb(233, 235, 252); font-family: Roboto; font-size: 12px; white-space: pre;" x="83.111" y="34.48">out(o)</text>
  <text transform="matrix(1, 0, 0, 1, 65.447281, -12.861673)" style="fill: rgb(233, 235, 252); font-family: Roboto; font-size: 12px; text-anchor: middle; white-space: pre;"><tspan x="84.396" y="71.587">3</tspan><tspan x="84.396" dy="1em">​</tspan><tspan>(s)</tspan></text>
  <text transform="matrix(1, 0, 0, 1, -35.211651, -14.44617)" style="fill: rgb(51, 51, 51); font-family: Roboto; font-size: 12px; stroke: rgb(233, 235, 252); text-anchor: middle; white-space: pre;"><tspan x="84.396" y="71.587">1</tspan><tspan x="84.396" dy="1em">​</tspan><tspan>(s)</tspan></text>
  <text transform="matrix(1, 0, 0, 1, -35.211651, -14.44617)" style="fill: rgb(233, 235, 252); font-family: Roboto; font-size: 12px; text-anchor: middle; white-space: pre;"><tspan x="84.396" y="71.587">1</tspan><tspan x="84.396" dy="1em">​</tspan><tspan>(s)</tspan></text>
  <text transform="matrix(1, 0, 0, 1, -34.02327, 66.341644)" style="fill: rgb(233, 235, 252); font-family: Roboto; font-size: 12px; text-anchor: middle; white-space: pre;"><tspan x="84.396" y="71.587">2</tspan><tspan x="84.396" dy="1em">​</tspan><tspan>(s)</tspan></text>
  <text transform="matrix(1, 0, 0, 1, 65.286034, 65.987976)" style="fill: rgb(233, 235, 252); font-family: Roboto; font-size: 12px; text-anchor: middle; white-space: pre;"><tspan x="84.396" y="71.587">4</tspan><tspan x="84.396" dy="1em">​</tspan><tspan>(s)</tspan></text>
  <line style="marker-end: url(#arrowhead); stroke-dasharray: 2px; stroke: rgb(233, 235, 252);" x1="60" y1="60" x2="140" y2="60"/>
  <line style="stroke-dasharray: 2px; marker-end: url(#arrowhead); stroke: rgb(233, 235, 252);" x1="43.021" y1="60.19" x2="123.021" y2="140.19" transform="matrix(1, 0, 0, 1, 16.978634, -0.190379)"/>
  <path style="fill: none; stroke-dasharray: 2px; marker-end: url(#arrowhead); stroke: rgb(233, 235, 252);" d="M 60.865 60.6 C 81.538 93.471 73.717 113.945 67.909 122.961"/>
  <line style="stroke-dasharray: 2px; marker-end: url(#arrowhead); stroke: rgb(233, 235, 252);" x1="7.404543547492711" y1="59.907001495361335" x2="40.00000000000001" y2="60.00000000000001"/>
  <line style="stroke-dasharray: 2px; marker-end: url(#arrowhead); stroke: rgb(233, 235, 252);" x1="160" y1="59.907001495361335" x2="193.3047150027292" y2="59.907001495361335"/>
  <line style="marker-end: url(#arrowhead); stroke-dasharray: 2px; stroke: rgb(233, 235, 252);" x1="39.99999856948853" y1="142.3849983215332" x2="7.404543399810795" y2="142.3849983215332"/>
  <line style="marker-end: url(#arrowhead); stroke-dasharray: 2px; stroke: rgb(233, 235, 252);" x1="160" y1="142.38499450683594" x2="193.30471801757812" y2="142.3849983215332"/>
  <path style="stroke-dasharray: 2px; fill: none; stroke: rgb(233, 235, 252);" d="M 60.868 59.996 C 60.49 62.952 91.246 54.417 92.052 48.121"/>
  <g>
    <line style="stroke: rgb(233, 235, 252);" x1="92.052" y1="43.696" x2="92.052" y2="51.752"/>
    <line style="stroke: rgb(233, 235, 252);" x1="88" y1="48" x2="96" y2="48"/>
  </g>
  <polygon style="fill: none; stroke-linejoin: round; stroke-width: 0.5px; stroke: rgb(233, 235, 252); stroke-dasharray: 4px;" points="31.180999755859375 35.071998596191406 65.52799987792969 35.16400146484375 78.74199676513672 43.63800048828125 120.40899658203125 43.63800048828125 135.4929962158203 34.31100082397461 170.18800354003906 33.65800094604492 170.18800354003906 165.6300048828125 131.86199951171875 165.6300048828125 58.31999969482422 88.23300170898438 31.464000701904297 88.2229995727539"/>
  <g transform="matrix(1, 0, 0, 1, -24.495712, 75.027145)">
    <line style="stroke: rgb(233, 235, 252);" x1="92.052" y1="43.696" x2="92.052" y2="51.752"/>
    <line style="stroke: rgb(233, 235, 252);" x1="88" y1="48" x2="96" y2="48"/>
  </g>
  <text style="fill: rgb(233, 235, 252); font-family: Roboto; font-size: 7px; white-space: pre; text-decoration: underline solid rgba(0, 0, 0, 0.8);" x="4.964" y="26.496">Group: 1</text>
  <line style="stroke: rgb(233, 235, 252); marker-end: url(#arrowhead); stroke-width: 0.5px;" x1="18.073627780370217" y1="28.203125" x2="31.171875000000007" y2="40"/>
</svg>