<?xml version="1.0" encoding="UTF-8" standalone="no"?>
<!-- Created with Inkscape (http://www.inkscape.org/) -->

<svg
   xmlns:dc="http://purl.org/dc/elements/1.1/"
   xmlns:cc="http://creativecommons.org/ns#"
   xmlns:rdf="http://www.w3.org/1999/02/22-rdf-syntax-ns#"
   xmlns:svg="http://www.w3.org/2000/svg"
   xmlns="http://www.w3.org/2000/svg"
   xmlns:inkscape="http://www.inkscape.org/namespaces/inkscape"
   version="1.1"
   width="60.987499"
   height="30.612499"
   id="svg2"
   xml:space="preserve"><metadata
     id="metadata8"><rdf:RDF><cc:Work
         rdf:about=""><dc:format>image/svg+xml</dc:format><dc:type
           rdf:resource="http://purl.org/dc/dcmitype/StillImage" /></cc:Work></rdf:RDF></metadata><defs
     id="defs6" /><g
     transform="matrix(1.25,0,0,-1.25,0,30.6125)"
     id="g10"><g
       transform="scale(0.1,0.1)"
       id="g12"><path
         d="M 5.65234,120.734 149.941,237.41 l 333.098,0 -119.398,-116.676 -357.98866,0"
         inkscape:connector-curvature="0"
         id="path14"
         style="fill:#000000;fill-opacity:1;fill-rule:nonzero;stroke:none" /><path
         d="M 5.65234,120.734 149.941,237.41 l 333.098,0 -119.398,-116.676 -357.98866,0 z"
         inkscape:connector-curvature="0"
         id="path16"
         style="fill:none;stroke:#ffffff;stroke-width:4;stroke-linecap:butt;stroke-linejoin:miter;stroke-miterlimit:4;stroke-opacity:1;stroke-dasharray:none" /><path
         d="M 363.641,4.77344 483.039,122.18 l 0,117.898 -119.398,-119.344 0,-115.96056"
         inkscape:connector-curvature="0"
         id="path18"
         style="fill:#000000;fill-opacity:1;fill-rule:nonzero;stroke:none" /><path
         d="M 363.641,4.77344 483.039,122.18 l 0,117.898 -119.398,-119.344 0,-115.96056 z"
         inkscape:connector-curvature="0"
         id="path20"
         style="fill:none;stroke:#ffffff;stroke-width:4;stroke-linecap:butt;stroke-linejoin:miter;stroke-miterlimit:4;stroke-opacity:1;stroke-dasharray:none" /><path
         d="m 6.14062,4.66797 357.5,0 0,116.066 -357.5,0 0,-116.066 z"
         inkscape:connector-curvature="0"
         id="path22"
         style="fill:#000000;fill-opacity:1;fill-rule:nonzero;stroke:none" /><path
         d="m 6.14062,4.66797 357.5,0 0,116.066 -357.5,0 0,-116.066 z"
         inkscape:connector-curvature="0"
         id="path24"
         style="fill:none;stroke:#ffffff;stroke-width:4;stroke-linecap:butt;stroke-linejoin:miter;stroke-miterlimit:4;stroke-opacity:1;stroke-dasharray:none" /><path
         d="m 217.969,102.703 c 0,0 4.785,0.539 5.859,-4.2577 l 1.055,-18.3086 31.933,-5.3203 3.184,6.9141 -7.988,22.0395 c -40.957,10.109 -68.282,6.914 -68.282,6.914 l 1.582,0 c 0,0 -21.554,3.195 -62.531,-6.914 l -7.969,-22.0395 3.188,-6.9141 31.93,5.3203 1.054,18.3086 c 1.059,4.7967 5.86,4.2577 5.86,4.2577 l 61.125,0"
         inkscape:connector-curvature="0"
         id="path26"
         style="fill:#ffffff;fill-opacity:1;fill-rule:nonzero;stroke:none" /><path
         d="m 153.895,15.9062 66.9766,0 0,68.4297 -66.9766,0 0,-68.4297 z"
         inkscape:connector-curvature="0"
         id="path28"
         style="fill:#000000;fill-opacity:1;fill-rule:nonzero;stroke:none" /><path
         d="m 153.895,15.9062 66.9766,0 0,68.4297 -66.9766,0 0,-68.4297 z"
         inkscape:connector-curvature="0"
         id="path30"
         style="fill:none;stroke:#ffffff;stroke-width:4;stroke-linecap:butt;stroke-linejoin:miter;stroke-miterlimit:4;stroke-opacity:1;stroke-dasharray:none" /><g
         transform="scale(10,10)"
         id="g32"><text
           transform="matrix(1,0,0,-1,15.8703,2.05977)"
           id="text34"><tspan
             x="0"
             y="0"
             id="tspan36"
             style="font-size:8.14509964px;font-variant:normal;font-weight:bold;writing-mode:lr-tb;fill:#ffffff;fill-opacity:1;fill-rule:nonzero;stroke:none;font-family:Helvetica;-inkscape-font-specification:Helvetica-Bold">V</tspan></text>
</g><path
         d="m 139.715,148.293 c 0,-6.906 -14.547,-12.5 -32.5,-12.5 -17.9494,0 -32.5002,5.594 -32.5002,12.5 0,6.902 14.5508,12.5 32.5002,12.5 17.953,0 32.5,-5.598 32.5,-12.5"
         inkscape:connector-curvature="0"
         id="path38"
         style="fill:#999999;fill-opacity:1;fill-rule:nonzero;stroke:none" /><path
         d="m 139.715,156.238 c 0,-6.902 -14.547,-12.5 -32.5,-12.5 -17.9494,0 -32.5002,5.598 -32.5002,12.5 0,6.907 14.5508,12.5 32.5002,12.5 17.953,0 32.5,-5.593 32.5,-12.5"
         inkscape:connector-curvature="0"
         id="path40"
         style="fill:#ffffff;fill-opacity:1;fill-rule:nonzero;stroke:none" /></g></g></svg>