<?xml version="1.0" encoding="UTF-8" standalone="no"?>
<!-- Created with Inkscape (http://www.inkscape.org/) -->

<svg
   xmlns:dc="http://purl.org/dc/elements/1.1/"
   xmlns:cc="http://creativecommons.org/ns#"
   xmlns:rdf="http://www.w3.org/1999/02/22-rdf-syntax-ns#"
   xmlns:svg="http://www.w3.org/2000/svg"
   xmlns="http://www.w3.org/2000/svg"
   xmlns:inkscape="http://www.inkscape.org/namespaces/inkscape"
   version="1.1"
   width="44.387501"
   height="22.200001"
   id="svg2"
   xml:space="preserve"><metadata
     id="metadata8"><rdf:RDF><cc:Work
         rdf:about=""><dc:format>image/svg+xml</dc:format><dc:type
           rdf:resource="http://purl.org/dc/dcmitype/StillImage" /></cc:Work></rdf:RDF></metadata><defs
     id="defs6" /><g
     transform="matrix(1.25,0,0,-1.25,0,22.2)"
     id="g10"><g
       transform="scale(0.1,0.1)"
       id="g12"><path
         d="M 5.62891,88.7734 109.77,172.973 l 240.421,0 -86.183,-84.1996 -258.37909,0"
         inkscape:connector-curvature="0"
         id="path14"
         style="fill:#000000;fill-opacity:1;fill-rule:nonzero;stroke:none" /><path
         d="M 5.62891,88.7734 109.77,172.973 l 240.421,0 -86.183,-84.1996 -258.37909,0 z"
         inkscape:connector-curvature="0"
         id="path16"
         style="fill:none;stroke:#ffffff;stroke-width:3.98300004;stroke-linecap:butt;stroke-linejoin:miter;stroke-miterlimit:4;stroke-opacity:1;stroke-dasharray:none" /><path
         d="m 264.008,5.07812 86.183,93.04298 0,74.7069 -86.183,-84.0546 0,-83.69528"
         inkscape:connector-curvature="0"
         id="path18"
         style="fill:#000000;fill-opacity:1;fill-rule:nonzero;stroke:none" /><path
         d="m 264.008,5.07812 86.183,93.04298 0,74.7069 -86.183,-84.0546 0,-83.69528 z"
         inkscape:connector-curvature="0"
         id="path20"
         style="fill:none;stroke:#ffffff;stroke-width:3.98300004;stroke-linecap:butt;stroke-linejoin:miter;stroke-miterlimit:4;stroke-opacity:1;stroke-dasharray:none" /><path
         d="m 5.99219,5 258.016,0 0,83.7734 -258.016,0 0,-83.7734 z"
         inkscape:connector-curvature="0"
         id="path22"
         style="fill:#000000;fill-opacity:1;fill-rule:nonzero;stroke:none" /><path
         d="m 5.99219,5 258.016,0 0,83.7734 -258.016,0 0,-83.7734 z"
         inkscape:connector-curvature="0"
         id="path24"
         style="fill:none;stroke:#ffffff;stroke-width:3.98300004;stroke-linecap:butt;stroke-linejoin:miter;stroke-miterlimit:4;stroke-opacity:1;stroke-dasharray:none" /><path
         d="m 146.539,42.3438 -100.871,-0.0586 0,12.3242 100.871,0.039 0.039,19.1993 44.824,-25.3711 -44.824,-25.3711 -0.039,19.2383"
         inkscape:connector-curvature="0"
         id="path26"
         style="fill:#ffffff;fill-opacity:1;fill-rule:nonzero;stroke:none" /><path
         d="m 146.539,42.3438 -100.871,-0.0586 0,12.3242 100.871,0.039 0.039,19.1993 44.824,-25.3711 -44.824,-25.3711 -0.039,19.2383 z"
         inkscape:connector-curvature="0"
         id="path28"
         style="fill:none;stroke:#ffffff;stroke-width:3.98300004;stroke-linecap:butt;stroke-linejoin:miter;stroke-miterlimit:4;stroke-opacity:1;stroke-dasharray:none" /><path
         d="M 56.7539,54.5898 56.7148,73.7891 11.8906,48.418 56.7148,23.0469 56.7539,42.2852"
         inkscape:connector-curvature="0"
         id="path30"
         style="fill:#ffffff;fill-opacity:1;fill-rule:nonzero;stroke:none" /><path
         d="M 56.7539,54.5898 56.7148,73.7891 11.8906,48.418 56.7148,23.0469 56.7539,42.2852"
         inkscape:connector-curvature="0"
         id="path32"
         style="fill:none;stroke:#ffffff;stroke-width:3.98300004;stroke-linecap:butt;stroke-linejoin:miter;stroke-miterlimit:4;stroke-opacity:1;stroke-dasharray:none" /><path
         d="m 252.828,54.5898 -0.039,19.1993 -44.824,-25.3711 44.824,-25.3711 0.039,19.2383 0,12.3046"
         inkscape:connector-curvature="0"
         id="path34"
         style="fill:#ffffff;fill-opacity:1;fill-rule:nonzero;stroke:none" /><path
         d="m 252.828,54.5898 -0.039,19.1993 -44.824,-25.3711 44.824,-25.3711 0.039,19.2383 0,12.3046 z"
         inkscape:connector-curvature="0"
         id="path36"
         style="fill:none;stroke:#ffffff;stroke-width:3.98300004;stroke-linecap:butt;stroke-linejoin:miter;stroke-miterlimit:4;stroke-opacity:1;stroke-dasharray:none" /></g></g></svg>