<?xml version="1.0" encoding="UTF-8" standalone="no"?>
<!-- Created with Inkscape (http://www.inkscape.org/) -->

<svg
   xmlns:dc="http://purl.org/dc/elements/1.1/"
   xmlns:cc="http://creativecommons.org/ns#"
   xmlns:rdf="http://www.w3.org/1999/02/22-rdf-syntax-ns#"
   xmlns:svg="http://www.w3.org/2000/svg"
   xmlns="http://www.w3.org/2000/svg"
   xmlns:inkscape="http://www.inkscape.org/namespaces/inkscape"
   version="1.1"
   width="28.424999"
   height="31.5"
   id="svg2"
   xml:space="preserve"><metadata
     id="metadata8"><rdf:RDF><cc:Work
         rdf:about=""><dc:format>image/svg+xml</dc:format><dc:type
           rdf:resource="http://purl.org/dc/dcmitype/StillImage" /></cc:Work></rdf:RDF></metadata><defs
     id="defs6" /><g
     transform="matrix(1.25,0,0,-1.25,0,31.5)"
     id="g10"><g
       transform="scale(0.1,0.1)"
       id="g12"><path
         d="M 160.836,161.539 48.5117,220.484"
         inkscape:connector-curvature="0"
         id="path14"
         style="fill:#595959;fill-opacity:1;fill-rule:nonzero;stroke:none" /><path
         d="m 223.906,192.641 0,-101.9535 -18.144,-31.1094 0,101.9609 18.144,31.102"
         inkscape:connector-curvature="0"
         id="path16"
         style="fill:#000000;fill-opacity:1;fill-rule:nonzero;stroke:none" /><path
         d="m 223.906,192.641 0,-101.9535 -18.144,-31.1094 0,101.9609 18.144,31.102 z"
         inkscape:connector-curvature="0"
         id="path18"
         style="fill:none;stroke:#ffffff;stroke-width:4;stroke-linecap:butt;stroke-linejoin:miter;stroke-miterlimit:4;stroke-opacity:1;stroke-dasharray:none" /><path
         d="m 48.5117,220.605 -44.92576,0 18.14066,29.422 44.9296,0 112.3238,-57.386 44.926,0 -18.144,-31.102 -44.926,0"
         inkscape:connector-curvature="0"
         id="path20"
         style="fill:#000000;fill-opacity:1;fill-rule:nonzero;stroke:none" /><path
         d="m 48.5117,220.605 -44.92576,0 18.14066,29.422 44.9296,0 112.3238,-57.386 44.926,0 -18.144,-31.102 -44.926,0"
         inkscape:connector-curvature="0"
         id="path22"
         style="fill:none;stroke:#ffffff;stroke-width:4;stroke-linecap:butt;stroke-linejoin:miter;stroke-miterlimit:4;stroke-opacity:1;stroke-dasharray:none" /><path
         d="m 48.6367,220.484 112.3203,-58.945 -0.121,0 44.926,0 0,-101.9609 -44.926,0 0.121,0 -112.3203,-57.01951 -0.125,0.17579 -44.92576,0 0,217.98462 44.92576,0 0.125,-0.235"
         inkscape:connector-curvature="0"
         id="path24"
         style="fill:#000000;fill-opacity:1;fill-rule:nonzero;stroke:none" /><path
         d="m 48.6367,220.484 112.3203,-58.945 -0.121,0 44.926,0 0,-101.9609 -44.926,0 0.121,0 -112.3203,-57.01951 -0.125,0.17579 -44.92576,0 0,217.98462 44.92576,0 0.125,-0.235 z"
         inkscape:connector-curvature="0"
         id="path26"
         style="fill:none;stroke:#ffffff;stroke-width:4;stroke-linecap:butt;stroke-linejoin:miter;stroke-miterlimit:4;stroke-opacity:1;stroke-dasharray:none" /><path
         d="m 150.348,113.984 0,13.18 39.574,-16.109 -39.574,-16.2933 0,13.1793 -88.0394,-0.007 0,6.05 88.0394,0"
         inkscape:connector-curvature="0"
         id="path28"
         style="fill:#ffffff;fill-opacity:1;fill-rule:nonzero;stroke:none" /><path
         d="m 59.6055,162.309 0,5.191 61.5935,0 38.836,-21.301 6.336,11.559 26.949,-33.153 -42.535,4.743 6.34,11.554 -35.707,20.871 -61.8125,0.536"
         inkscape:connector-curvature="0"
         id="path30"
         style="fill:#ffffff;fill-opacity:1;fill-rule:nonzero;stroke:none" /><path
         d="m 121.418,59.0781 35.707,20.8672 -6.34,11.5586 42.535,4.7461 -26.949,-33.1602 -6.336,11.5586 -38.836,-21.2929 -61.5935,0 0,5.1836 61.8125,0.539"
         inkscape:connector-curvature="0"
         id="path32"
         style="fill:#ffffff;fill-opacity:1;fill-rule:nonzero;stroke:none" /></g></g></svg>