<?xml version="1.0" encoding="UTF-8" standalone="no"?>
<!-- Created with Inkscape (http://www.inkscape.org/) -->

<svg
   xmlns:dc="http://purl.org/dc/elements/1.1/"
   xmlns:cc="http://creativecommons.org/ns#"
   xmlns:rdf="http://www.w3.org/1999/02/22-rdf-syntax-ns#"
   xmlns:svg="http://www.w3.org/2000/svg"
   xmlns="http://www.w3.org/2000/svg"
   xmlns:inkscape="http://www.inkscape.org/namespaces/inkscape"
   version="1.1"
   width="46.487499"
   height="52.025002"
   id="svg2"
   xml:space="preserve"><metadata
     id="metadata8"><rdf:RDF><cc:Work
         rdf:about=""><dc:format>image/svg+xml</dc:format><dc:type
           rdf:resource="http://purl.org/dc/dcmitype/StillImage" /></cc:Work></rdf:RDF></metadata><defs
     id="defs6" /><g
     transform="matrix(1.25,0,0,-1.25,0,52.025)"
     id="g10"><g
       transform="scale(0.1,0.1)"
       id="g12"><path
         d="m 369.852,342.68 c 0,-39.492 -82.34,-71.524 -183.922,-71.524 -101.5823,0 -183.92609,32.032 -183.92609,71.524 l 0,-269.1448 C 2.00391,34.0156 84.3477,2.00391 185.93,2.00391 c 101.582,0 183.922,32.01169 183.922,71.53129 l 0,269.1448"
         inkscape:connector-curvature="0"
         id="path14"
         style="fill:#000000;fill-opacity:1;fill-rule:nonzero;stroke:none" /><path
         d="m 369.852,342.68 c 0,-39.492 -82.34,-71.524 -183.922,-71.524 -101.5823,0 -183.92609,32.032 -183.92609,71.524 l 0,-269.1448 C 2.00391,34.0156 84.3477,2.00391 185.93,2.00391 c 101.582,0 183.922,32.01169 183.922,71.53129 l 0,269.1448 z"
         inkscape:connector-curvature="0"
         id="path16"
         style="fill:none;stroke:#ffffff;stroke-width:4;stroke-linecap:butt;stroke-linejoin:miter;stroke-miterlimit:4;stroke-opacity:1;stroke-dasharray:none" /><path
         d="m 185.93,271.156 c 101.582,0 183.922,32.032 183.922,71.524 0,39.511 -82.34,71.523 -183.922,71.523 -101.5823,0 -183.92609,-32.012 -183.92609,-71.523 0,-39.492 82.34379,-71.524 183.92609,-71.524"
         inkscape:connector-curvature="0"
         id="path18"
         style="fill:#000000;fill-opacity:1;fill-rule:nonzero;stroke:none" /><path
         d="m 185.93,271.156 c 101.582,0 183.922,32.032 183.922,71.524 0,39.511 -82.34,71.523 -183.922,71.523 -101.5823,0 -183.92609,-32.012 -183.92609,-71.523 0,-39.492 82.34379,-71.524 183.92609,-71.524 z"
         inkscape:connector-curvature="0"
         id="path20"
         style="fill:none;stroke:#ffffff;stroke-width:4;stroke-linecap:butt;stroke-linejoin:miter;stroke-miterlimit:4;stroke-opacity:1;stroke-dasharray:none" /><path
         d="m 143.926,370.648 15.183,-22.773 -57.421,-13.281 12.55,10.449 -88.7419,15.176 22.2578,16.679 85.6371,-14.492 10.535,8.242"
         inkscape:connector-curvature="0"
         id="path22"
         style="fill:#ffffff;fill-opacity:1;fill-rule:nonzero;stroke:none" /><path
         d="m 224.727,315.414 -10.364,23.477 51.797,10.351 -8.98,-8.047 86.328,-14.746 L 322.793,309.887 236.98,326 224.727,315.414"
         inkscape:connector-curvature="0"
         id="path24"
         style="fill:#ffffff;fill-opacity:1;fill-rule:nonzero;stroke:none" /><path
         d="m 196.418,383.09 58.008,15.879 0.679,-24.864 -14.492,2.774 -28.316,-23.477 -27.016,3.926 29.223,22.969 -18.086,2.793"
         inkscape:connector-curvature="0"
         id="path26"
         style="fill:#ffffff;fill-opacity:1;fill-rule:nonzero;stroke:none" /><path
         d="m 171.555,293.988 -55.254,-10.351 -2.074,25.566 15.878,-3.457 30.411,25.957 26.918,-4.551 -32.461,-28.32 16.582,-4.844"
         inkscape:connector-curvature="0"
         id="path28"
         style="fill:#ffffff;fill-opacity:1;fill-rule:nonzero;stroke:none" /><path
         d="m 188.762,176.836 0,57.988 9.84,0 -14.508,21.875 -14.524,-21.875 9.832,0 0,-57.988 9.36,0"
         inkscape:connector-curvature="0"
         id="path30"
         style="fill:#ffffff;fill-opacity:1;fill-rule:nonzero;stroke:none" /><path
         d="m 159.18,168.457 -41.004,40.996 6.953,6.953 -25.7423,5.215 5.2153,-25.742 6.953,6.953 41.004,-40.996 6.621,6.621"
         inkscape:connector-curvature="0"
         id="path32"
         style="fill:#ffffff;fill-opacity:1;fill-rule:nonzero;stroke:none" /><path
         d="m 144.188,141.602 -57.9966,0 0,9.843 -21.8828,-14.511 21.8828,-14.532 0,9.844 57.9966,0 0,9.356"
         inkscape:connector-curvature="0"
         id="path34"
         style="fill:#ffffff;fill-opacity:1;fill-rule:nonzero;stroke:none" /><path
         d="m 152.559,112.031 -41.004,-41.0154 -6.953,6.9532 -5.2153,-25.7422 25.7423,5.2148 -6.953,6.9531 41.004,41.0155 -6.621,6.621"
         inkscape:connector-curvature="0"
         id="path36"
         style="fill:#ffffff;fill-opacity:1;fill-rule:nonzero;stroke:none" /><path
         d="m 179.402,97.0312 0,-57.9882 -9.832,0 14.524,-21.8946 14.508,21.8946 -9.84,0 0,57.9882 -9.36,0"
         inkscape:connector-curvature="0"
         id="path38"
         style="fill:#ffffff;fill-opacity:1;fill-rule:nonzero;stroke:none" /><path
         d="m 208.992,105.41 40.996,-41.0155 -6.953,-6.9531 25.742,-5.2148 -5.215,25.7422 -6.953,-6.9532 -41.004,41.0154 -6.613,-6.621"
         inkscape:connector-curvature="0"
         id="path40"
         style="fill:#ffffff;fill-opacity:1;fill-rule:nonzero;stroke:none" /><path
         d="m 223.992,132.246 57.988,0 0,-9.844 21.875,14.532 -21.875,14.511 0,-9.843 -57.988,0 0,-9.356"
         inkscape:connector-curvature="0"
         id="path42"
         style="fill:#ffffff;fill-opacity:1;fill-rule:nonzero;stroke:none" /><path
         d="m 215.605,161.836 41.004,40.996 6.953,-6.953 5.215,25.742 -25.742,-5.215 6.953,-6.953 -40.996,-40.996 6.613,-6.621"
         inkscape:connector-curvature="0"
         id="path44"
         style="fill:#ffffff;fill-opacity:1;fill-rule:nonzero;stroke:none" /><path
         d="m 219.559,88.3203 c 27.168,19.0237 33.769,56.4647 14.75,83.6327 -19.028,27.168 -56.465,33.77 -83.625,14.746 -27.161,-19.023 -33.758,-56.465 -14.739,-83.633 19.016,-27.1676 56.457,-33.7496 83.614,-14.7457"
         inkscape:connector-curvature="0"
         id="path46"
         style="fill:#ffffff;fill-opacity:1;fill-rule:nonzero;stroke:none" /></g></g></svg>