<?xml version="1.0" encoding="UTF-8" standalone="no"?>
<!-- Created with Inkscape (http://www.inkscape.org/) -->

<svg
   xmlns:dc="http://purl.org/dc/elements/1.1/"
   xmlns:cc="http://creativecommons.org/ns#"
   xmlns:rdf="http://www.w3.org/1999/02/22-rdf-syntax-ns#"
   xmlns:svg="http://www.w3.org/2000/svg"
   xmlns="http://www.w3.org/2000/svg"
   xmlns:sodipodi="http://sodipodi.sourceforge.net/DTD/sodipodi-0.dtd"
   xmlns:inkscape="http://www.inkscape.org/namespaces/inkscape"
   id="svg3004"
   version="1.1"
   inkscape:version="0.48.4 r9939"
   width="40.0125"
   height="42.3"
   xml:space="preserve"
   sodipodi:docname="intelliswitch stack.eps"><metadata
     id="metadata3010"><rdf:RDF><cc:Work
         rdf:about=""><dc:format>image/svg+xml</dc:format><dc:type
           rdf:resource="http://purl.org/dc/dcmitype/StillImage" /><dc:title></dc:title></cc:Work></rdf:RDF></metadata><defs
     id="defs3008" /><sodipodi:namedview
     pagecolor="#ffffff"
     bordercolor="#666666"
     borderopacity="1"
     objecttolerance="10"
     gridtolerance="10"
     guidetolerance="10"
     inkscape:pageopacity="0"
     inkscape:pageshadow="2"
     inkscape:window-width="640"
     inkscape:window-height="480"
     id="namedview3006"
     showgrid="false"
     inkscape:zoom="5.5791963"
     inkscape:cx="20.00625"
     inkscape:cy="21.15"
     inkscape:window-x="0"
     inkscape:window-y="32"
     inkscape:window-maximized="0"
     inkscape:current-layer="g3012" /><g
     id="g3012"
     inkscape:groupmode="layer"
     inkscape:label="ink_ext_XXXXXX"
     transform="matrix(1.25,0,0,-1.25,0,42.3)"><g
       id="g3014"
       transform="scale(0.1,0.1)"><path
         d="m 5.26562,175.715 234.68738,0"
         style="fill:none;stroke:#ffffff;stroke-opacity:1;stroke-width:4.14;stroke-linecap:butt;stroke-linejoin:miter;stroke-miterlimit:4;stroke-dasharray:none"
         id="path3016" /><path
         d="m 5.27344,3.30078 234.688,0 0,76.8164 -234.688,0 0,-76.8164 z"
         style="fill:#000000;fill-opacity:1;fill-rule:nonzero;stroke:none"
         id="path3018" /><path
         d="m 5.27344,3.30078 234.688,0 0,76.8164 -234.688,0 0,-76.8164 z"
         style="fill:none;stroke:#ffffff;stroke-opacity:1;stroke-width:3.6;stroke-linecap:butt;stroke-linejoin:miter;stroke-miterlimit:4;stroke-dasharray:none"
         id="path3020" /><path
         d="m 315.516,149.676 -75.555,-69.4807 -234.961,0 83.957,69.4807 226.559,0"
         style="fill:#000000;fill-opacity:1;fill-rule:nonzero;stroke:none"
         id="path3022" /><path
         d="m 315.516,149.676 -75.555,-69.4807 -234.961,0 83.957,69.4807 226.559,0 z"
         style="fill:none;stroke:#ffffff;stroke-opacity:1;stroke-width:3.6;stroke-linecap:butt;stroke-linejoin:miter;stroke-miterlimit:4;stroke-dasharray:none"
         id="path3024" /><path
         d="m 315.809,77.668 0,71.844 -75.848,-69.5432 0,-75.7188 75.848,73.418"
         style="fill:#000000;fill-opacity:1;fill-rule:nonzero;stroke:none"
         id="path3026" /><path
         d="m 315.809,77.668 0,71.844 -75.848,-69.5432 0,-75.7188 75.848,73.418 z"
         style="fill:none;stroke:#ffffff;stroke-opacity:1;stroke-width:3.6;stroke-linecap:butt;stroke-linejoin:miter;stroke-miterlimit:4;stroke-dasharray:none"
         id="path3028" /><path
         d="m 5.27344,95.7617 234.688,0 0,76.7891 -234.688,0 0,-76.7891 z"
         style="fill:#000000;fill-opacity:1;fill-rule:nonzero;stroke:none"
         id="path3030" /><path
         d="m 5.27344,95.7617 234.688,0 0,76.7891 -234.688,0 0,-76.7891 z"
         style="fill:none;stroke:#ffffff;stroke-opacity:1;stroke-width:3.6;stroke-linecap:butt;stroke-linejoin:miter;stroke-miterlimit:4;stroke-dasharray:none"
         id="path3032" /><path
         d="m 315.516,244.688 -75.555,-69.481 -234.961,0 83.957,69.481 226.559,0"
         style="fill:#000000;fill-opacity:1;fill-rule:nonzero;stroke:none"
         id="path3034" /><path
         d="m 315.516,244.688 -75.555,-69.481 -234.961,0 83.957,69.481 226.559,0 z"
         style="fill:none;stroke:#ffffff;stroke-opacity:1;stroke-width:3.6;stroke-linecap:butt;stroke-linejoin:miter;stroke-miterlimit:4;stroke-dasharray:none"
         id="path3036" /><path
         d="m 315.809,162.352 0,76.359 -75.848,-69.539 0,-75.7267 75.848,68.9067"
         style="fill:#000000;fill-opacity:1;fill-rule:nonzero;stroke:none"
         id="path3038" /><path
         d="m 315.809,162.352 0,76.359 -75.848,-69.539 0,-75.7267 75.848,68.9067 z"
         style="fill:none;stroke:#ffffff;stroke-opacity:1;stroke-width:3.6;stroke-linecap:butt;stroke-linejoin:miter;stroke-miterlimit:4;stroke-dasharray:none"
         id="path3040" /><path
         d="m 5.27344,188.125 234.688,0 0,76.8203 -234.688,0 0,-76.8203 z"
         style="fill:#000000;fill-opacity:1;fill-rule:nonzero;stroke:none"
         id="path3042" /><path
         d="m 5.27344,188.125 234.688,0 0,76.8203 -234.688,0 0,-76.8203 z"
         style="fill:none;stroke:#ffffff;stroke-opacity:1;stroke-width:3.6;stroke-linecap:butt;stroke-linejoin:miter;stroke-miterlimit:4;stroke-dasharray:none"
         id="path3044" /><path
         d="m 315.516,334.492 -75.555,-69.469 -234.961,0 83.957,69.469 226.559,0"
         style="fill:#000000;fill-opacity:1;fill-rule:nonzero;stroke:none"
         id="path3046" /><path
         d="m 315.516,334.492 -75.555,-69.469 -234.961,0 83.957,69.469 226.559,0 z"
         style="fill:none;stroke:#ffffff;stroke-opacity:1;stroke-width:3.6;stroke-linecap:butt;stroke-linejoin:miter;stroke-miterlimit:4;stroke-dasharray:none"
         id="path3048" /><path
         d="m 315.809,259.258 0,75.078 -75.848,-69.539 0,-75.727 75.848,70.188"
         style="fill:#000000;fill-opacity:1;fill-rule:nonzero;stroke:none"
         id="path3050" /><path
         d="m 315.809,259.258 0,75.078 -75.848,-69.539 0,-75.727 75.848,70.188 z"
         style="fill:none;stroke:#ffffff;stroke-opacity:1;stroke-width:3.6;stroke-linecap:butt;stroke-linejoin:miter;stroke-miterlimit:4;stroke-dasharray:none"
         id="path3052" /><path
         d="m 197.441,294.59 9.911,7.445 27.062,-8.73 -54.285,-11.723 9.121,8.949 -53.859,0 8.203,4.059 53.847,0"
         style="fill:#000000;fill-opacity:1;fill-rule:nonzero;stroke:none"
         id="path3054" /><path
         d="m 170.918,314.734 -4.484,-4.765 -44.547,0 -8.977,-5.34 -26.953,8.812 54.18,11.637 -13.782,-10.344 44.563,0"
         style="fill:#000000;fill-opacity:1;fill-rule:nonzero;stroke:none"
         id="path3056" /><path
         d="m 132.441,284.086 -6.328,-4.758 -44.5583,0 -7.1211,-5.359 -26.9492,8.828 54.1876,11.637 -13.7814,-10.348 44.5504,0"
         style="fill:#000000;fill-opacity:1;fill-rule:nonzero;stroke:none"
         id="path3058" /><path
         d="m 240.129,322.469 9.898,7.445 27.055,-8.738 -54.277,-11.723 10.054,8.254 -53.855,0 7.266,4.762 53.859,0"
         style="fill:#000000;fill-opacity:1;fill-rule:nonzero;stroke:none"
         id="path3060" /><path
         d="m 197.441,292.008 9.911,7.445 27.062,-8.73 -54.285,-11.723 9.121,8.945 -53.859,0 8.203,4.063 53.847,0"
         style="fill:#ffffff;fill-opacity:1;fill-rule:nonzero;stroke:none"
         id="path3062" /><path
         d="m 170.918,312.152 -4.484,-4.765 -44.547,0 -8.977,-5.34 -26.953,8.812 54.18,11.637 -13.782,-10.344 44.563,0"
         style="fill:#ffffff;fill-opacity:1;fill-rule:nonzero;stroke:none"
         id="path3064" /><path
         d="m 132.441,281.504 -6.328,-4.766 -44.5583,0 -7.1211,-5.351 -26.9492,8.824 54.1876,11.641 -13.7814,-10.348 44.5504,0"
         style="fill:#ffffff;fill-opacity:1;fill-rule:nonzero;stroke:none"
         id="path3066" /><path
         d="m 240.129,319.887 9.898,7.441 27.055,-8.734 -54.277,-11.723 10.054,8.25 -53.855,0 7.266,4.766 53.859,0"
         style="fill:#ffffff;fill-opacity:1;fill-rule:nonzero;stroke:none"
         id="path3068" /><path
         d="m 130.652,179.383 0,51.961 8.821,0 -13.008,19.609 -13.008,-19.609 8.816,0 0,-51.961 8.379,0"
         style="fill:#ffffff;fill-opacity:1;fill-rule:nonzero;stroke:none"
         id="path3070" /><path
         d="m 104.148,161.543 -36.7339,36.738 6.2265,6.231 -23.0625,4.676 4.668,-23.075 6.2305,6.239 36.7382,-36.739 5.9332,5.93"
         style="fill:#ffffff;fill-opacity:1;fill-rule:nonzero;stroke:none"
         id="path3072" /><path
         d="m 90.7148,137.5 -51.9648,0 0,8.801 -19.6094,-13.008 19.6094,-13 0,8.816 51.9648,0 0,8.391"
         style="fill:#ffffff;fill-opacity:1;fill-rule:nonzero;stroke:none"
         id="path3074" /><path
         d="M 98.2148,110.984 61.4766,74.25 l -6.2305,6.2188 -4.668,-23.0547 23.0625,4.6757 -6.2265,6.2305 36.7339,36.7387 -5.9332,5.925"
         style="fill:#ffffff;fill-opacity:1;fill-rule:nonzero;stroke:none"
         id="path3076" /><path
         d="m 122.273,97.5508 0,-51.957 -8.816,0 13.008,-19.6172 13.008,19.6172 -8.821,0 0,51.957 -8.379,0"
         style="fill:#ffffff;fill-opacity:1;fill-rule:nonzero;stroke:none"
         id="path3078" /><path
         d="m 148.777,105.059 36.739,-36.7387 -6.227,-6.2305 23.063,-4.6757 -4.668,23.0547 -6.227,-6.2188 -36.738,36.734 -5.942,-5.925"
         style="fill:#ffffff;fill-opacity:1;fill-rule:nonzero;stroke:none"
         id="path3080" /><path
         d="m 162.219,129.109 51.961,0 0,-8.816 19.609,13 -19.609,13.008 0,-8.801 -51.961,0 0,-8.391"
         style="fill:#ffffff;fill-opacity:1;fill-rule:nonzero;stroke:none"
         id="path3082" /><path
         d="m 154.719,155.613 36.738,36.739 6.227,-6.239 4.668,23.075 -23.063,-4.676 6.227,-6.231 -36.739,-36.738 5.942,-5.93"
         style="fill:#ffffff;fill-opacity:1;fill-rule:nonzero;stroke:none"
         id="path3084" /><path
         d="m 149.082,101.672 c 17.16,12.008 21.328,35.664 9.309,52.84 -12.012,17.148 -35.664,21.32 -52.832,9.304 -17.1606,-12.011 -21.3207,-35.671 -9.309,-52.832 12.012,-17.1676 35.664,-21.3356 52.832,-9.312"
         style="fill:#ffffff;fill-opacity:1;fill-rule:nonzero;stroke:none"
         id="path3086" /><path
         d="m 149.082,101.672 c 17.16,12.008 21.328,35.664 9.309,52.84 -12.012,17.148 -35.664,21.32 -52.832,9.304 -17.1606,-12.011 -21.3207,-35.671 -9.309,-52.832 12.012,-17.1676 35.664,-21.3356 52.832,-9.312 z"
         style="fill:none;stroke:#000000;stroke-opacity:1;stroke-width:2.52;stroke-linecap:butt;stroke-linejoin:miter;stroke-miterlimit:4;stroke-dasharray:none"
         id="path3088" /><path
         d="m 304.375,165.293 c -3.758,-48.731 -18.191,-87.3633 -32.234,-86.2813 -14.036,1.0938 -22.368,41.4653 -18.606,90.2073 3.762,48.719 18.192,87.359 32.235,86.269 14.035,-1.078 22.367,-41.465 18.605,-90.195 z"
         style="fill:none;stroke:#ffffff;stroke-opacity:1;stroke-width:9;stroke-linecap:butt;stroke-linejoin:miter;stroke-miterlimit:4;stroke-dasharray:none"
         id="path3090" /></g></g></svg>