<?xml version="1.0" encoding="UTF-8" standalone="no"?>
<!-- Created with Inkscape (http://www.inkscape.org/) -->

<svg
   xmlns:dc="http://purl.org/dc/elements/1.1/"
   xmlns:cc="http://creativecommons.org/ns#"
   xmlns:rdf="http://www.w3.org/1999/02/22-rdf-syntax-ns#"
   xmlns:svg="http://www.w3.org/2000/svg"
   xmlns="http://www.w3.org/2000/svg"
   xmlns:inkscape="http://www.inkscape.org/namespaces/inkscape"
   version="1.1"
   width="54.025002"
   height="29.5"
   id="svg2"
   xml:space="preserve"><metadata
     id="metadata8"><rdf:RDF><cc:Work
         rdf:about=""><dc:format>image/svg+xml</dc:format><dc:type
           rdf:resource="http://purl.org/dc/dcmitype/StillImage" /></cc:Work></rdf:RDF></metadata><defs
     id="defs6" /><g
     transform="matrix(1.25,0,0,-1.25,0,29.5)"
     id="g10"><g
       transform="scale(0.1,0.1)"
       id="g12"><path
         d="m 206.262,215.527 -96.379,0 L 3.80859,61.8555 c 92.92191,0 92.92971,0.0976 93.55471,0 116.2817,-17.0508 143.9257,-9.2188 252.6097,0 l 78.652,126.1715 -27.512,0 18.125,27.5 -190,0 -20.625,-27.5 -23.593,0 21.242,27.5"
         inkscape:connector-curvature="0"
         id="path14"
         style="fill:#000000;fill-opacity:1;fill-rule:nonzero;stroke:none" /><path
         d="m 206.262,215.527 -96.379,0 L 3.80859,61.8555 c 92.92191,0 92.92971,0.0976 93.55471,0 116.2817,-17.0508 143.9257,-9.2188 252.6097,0 l 78.652,126.1715 -27.512,0 18.125,27.5 -190,0 -20.625,-27.5 -23.593,0 21.242,27.5 z"
         inkscape:connector-curvature="0"
         id="path16"
         style="fill:none;stroke:#ffffff;stroke-width:4;stroke-linecap:butt;stroke-linejoin:miter;stroke-miterlimit:4;stroke-opacity:1;stroke-dasharray:none" /><path
         d="m 205.43,69.9414 -67.754,0 37.754,49.8316 65.41,0 -35.41,-49.8316"
         inkscape:connector-curvature="0"
         id="path18"
         style="fill:#000000;fill-opacity:1;fill-rule:nonzero;stroke:none" /><path
         d="m 205.43,69.9414 -67.754,0 37.754,49.8316 65.41,0 -35.41,-49.8316 z"
         inkscape:connector-curvature="0"
         id="path20"
         style="fill:none;stroke:#ffffff;stroke-width:3.47199988;stroke-linecap:butt;stroke-linejoin:miter;stroke-miterlimit:4;stroke-opacity:1;stroke-dasharray:none" /><path
         d="m 428.625,188.027 0,-92.6559 -78.652,-83.3203 0,49.8047 78.652,126.1715"
         inkscape:connector-curvature="0"
         id="path22"
         style="fill:#000000;fill-opacity:1;fill-rule:nonzero;stroke:none" /><path
         d="m 428.625,188.027 0,-92.6559 -78.652,-83.3203 0,49.8047 78.652,126.1715 z"
         inkscape:connector-curvature="0"
         id="path24"
         style="fill:none;stroke:#ffffff;stroke-width:4;stroke-linecap:butt;stroke-linejoin:miter;stroke-miterlimit:4;stroke-opacity:1;stroke-dasharray:none" /><path
         d="M 349.973,61.8555 428.625,188.027"
         inkscape:connector-curvature="0"
         id="path26"
         style="fill:#000000;fill-opacity:1;fill-rule:nonzero;stroke:none" /><path
         d="M 349.973,61.8555 428.625,188.027"
         inkscape:connector-curvature="0"
         id="path28"
         style="fill:none;stroke:#ffffff;stroke-width:4;stroke-linecap:butt;stroke-linejoin:miter;stroke-miterlimit:4;stroke-opacity:1;stroke-dasharray:none" /><path
         d="m 155.605,180.422 c -12.89,-14.828 -28.796,-32.113 -38.992,-48.879 l 0.86,-10.879 -31.7972,-49.1406 -3.6914,31.9726 c 6.0547,24.199 81.1206,119.266 98.4066,130.508 l 3.679,-31.984 -27.652,-31.813 -0.813,10.215"
         inkscape:connector-curvature="0"
         id="path30"
         style="fill:#000000;fill-opacity:1;fill-rule:nonzero;stroke:none" /><path
         d="m 155.605,180.422 c -12.89,-14.828 -28.796,-32.113 -38.992,-48.879 l 0.86,-10.879 -31.7972,-49.1406 -3.6914,31.9726 c 6.0547,24.199 81.1206,119.266 98.4066,130.508 l 3.679,-31.984 -27.652,-31.813 -0.813,10.215 z"
         inkscape:connector-curvature="0"
         id="path32"
         style="fill:none;stroke:#ffffff;stroke-width:4;stroke-linecap:butt;stroke-linejoin:round;stroke-miterlimit:4;stroke-opacity:1;stroke-dasharray:none" /><path
         d="m 22.8047,103.496 -3.6836,-31.9726 66.5547,0 -3.6914,31.9726 -59.1797,0"
         inkscape:connector-curvature="0"
         id="path34"
         style="fill:#000000;fill-opacity:1;fill-rule:nonzero;stroke:none" /><path
         d="m 22.8047,103.496 -3.6836,-31.9726 66.5547,0 -3.6914,31.9726 -59.1797,0 z"
         inkscape:connector-curvature="0"
         id="path36"
         style="fill:none;stroke:#ffffff;stroke-width:4;stroke-linecap:butt;stroke-linejoin:round;stroke-miterlimit:4;stroke-opacity:1;stroke-dasharray:none" /><path
         d="M 180.391,234.004 C 163.105,222.762 88.0391,127.695 81.9844,103.496 l -59.1797,0 c 6.0547,24.199 81.1213,119.266 98.4063,130.508 l 59.18,0"
         inkscape:connector-curvature="0"
         id="path38"
         style="fill:#000000;fill-opacity:1;fill-rule:nonzero;stroke:none" /><path
         d="M 180.391,234.004 C 163.105,222.762 88.0391,127.695 81.9844,103.496 l -59.1797,0 c 6.0547,24.199 81.1213,119.266 98.4063,130.508 l 59.18,0 z"
         inkscape:connector-curvature="0"
         id="path40"
         style="fill:none;stroke:#ffffff;stroke-width:4;stroke-linecap:butt;stroke-linejoin:round;stroke-miterlimit:4;stroke-opacity:1;stroke-dasharray:none" /><path
         d="m 200.48,152.234 38.985,51.536 152.226,0 -34.98,-51.536 -156.231,0"
         inkscape:connector-curvature="0"
         id="path42"
         style="fill:#ffffff;fill-opacity:1;fill-rule:nonzero;stroke:none" /><path
         d="m 200.48,152.234 38.985,51.536 152.226,0 -34.98,-51.536 -156.231,0 z"
         inkscape:connector-curvature="0"
         id="path44"
         style="fill:none;stroke:#ffffff;stroke-width:3.5;stroke-linecap:butt;stroke-linejoin:miter;stroke-miterlimit:4;stroke-opacity:1;stroke-dasharray:none" /><path
         d="m 217.07,161.797 26.203,34.648 102.364,0 -23.528,-34.648 -105.039,0"
         inkscape:connector-curvature="0"
         id="path46"
         style="fill:#000000;fill-opacity:1;fill-rule:nonzero;stroke:none" /><path
         d="M 217.668,119.773 182.258,69.9414"
         inkscape:connector-curvature="0"
         id="path48"
         style="fill:none;stroke:#ffffff;stroke-width:3.47199988;stroke-linecap:butt;stroke-linejoin:miter;stroke-miterlimit:4;stroke-opacity:1;stroke-dasharray:none" /><path
         d="M 196.211,119.773 160.801,69.9414"
         inkscape:connector-curvature="0"
         id="path50"
         style="fill:none;stroke:#ffffff;stroke-width:3.47199988;stroke-linecap:butt;stroke-linejoin:miter;stroke-miterlimit:4;stroke-opacity:1;stroke-dasharray:none" /><path
         d="m 166.887,107.812 65.058,0"
         inkscape:connector-curvature="0"
         id="path52"
         style="fill:none;stroke:#ffffff;stroke-width:3.47199988;stroke-linecap:butt;stroke-linejoin:miter;stroke-miterlimit:4;stroke-opacity:1;stroke-dasharray:none" /><path
         d="m 157.004,95.0977 66.367,0"
         inkscape:connector-curvature="0"
         id="path54"
         style="fill:none;stroke:#ffffff;stroke-width:3.47199988;stroke-linecap:butt;stroke-linejoin:miter;stroke-miterlimit:4;stroke-opacity:1;stroke-dasharray:none" /><path
         d="m 146.516,81.6211 67.285,0"
         inkscape:connector-curvature="0"
         id="path56"
         style="fill:none;stroke:#ffffff;stroke-width:3.47199988;stroke-linecap:butt;stroke-linejoin:miter;stroke-miterlimit:4;stroke-opacity:1;stroke-dasharray:none" /><path
         d="M 349.973,12.0508 C 241.289,2.83203 213.645,-5 97.3633,12.0508 l -93.55471,0 0,49.8047 c 92.92191,0 92.92971,0.0976 93.55471,0 116.2817,-17.0508 143.9257,-9.2188 252.6097,0 l 0,-49.8047"
         inkscape:connector-curvature="0"
         id="path58"
         style="fill:#000000;fill-opacity:1;fill-rule:nonzero;stroke:none" /><path
         d="M 349.973,12.0508 C 241.289,2.83203 213.645,-5 97.3633,12.0508 l -93.55471,0 0,49.8047 c 92.92191,0 92.92971,0.0976 93.55471,0 116.2817,-17.0508 143.9257,-9.2188 252.6097,0 l 0,-49.8047 z"
         inkscape:connector-curvature="0"
         id="path60"
         style="fill:none;stroke:#ffffff;stroke-width:4;stroke-linecap:butt;stroke-linejoin:miter;stroke-miterlimit:4;stroke-opacity:1;stroke-dasharray:none" /><path
         d="m 206.262,215.527 0,-27.5 -21.242,0 21.242,27.5"
         inkscape:connector-curvature="0"
         id="path62"
         style="fill:#000000;fill-opacity:1;fill-rule:nonzero;stroke:none" /><path
         d="m 206.262,215.527 0,-27.5 -21.242,0 21.242,27.5 z"
         inkscape:connector-curvature="0"
         id="path64"
         style="fill:none;stroke:#ffffff;stroke-width:4;stroke-linecap:butt;stroke-linejoin:miter;stroke-miterlimit:4;stroke-opacity:1;stroke-dasharray:none" /><path
         d="m 419.238,215.527 0,-27.5 -18.125,0 18.125,27.5"
         inkscape:connector-curvature="0"
         id="path66"
         style="fill:#000000;fill-opacity:1;fill-rule:nonzero;stroke:none" /><path
         d="m 419.238,215.527 0,-27.5 -18.125,0 18.125,27.5 z"
         inkscape:connector-curvature="0"
         id="path68"
         style="fill:none;stroke:#ffffff;stroke-width:4;stroke-linecap:butt;stroke-linejoin:miter;stroke-miterlimit:4;stroke-opacity:1;stroke-dasharray:none" /><g
         transform="scale(10,10)"
         id="g70"><text
           transform="matrix(1,0,0,-1,26.1625,6.93164)"
           id="text72"><tspan
             x="0 2.5020001"
             y="0"
             id="tspan74"
             style="font-size:9px;font-variant:normal;font-weight:bold;writing-mode:lr-tb;fill:#ffffff;fill-opacity:1;fill-rule:nonzero;stroke:none;font-family:Helvetica;-inkscape-font-specification:Helvetica-Bold">IP</tspan></text>
</g></g></g></svg>