<?xml version="1.0" encoding="UTF-8" standalone="no"?>
<!-- Created with Inkscape (http://www.inkscape.org/) -->

<svg
   xmlns:dc="http://purl.org/dc/elements/1.1/"
   xmlns:cc="http://creativecommons.org/ns#"
   xmlns:rdf="http://www.w3.org/1999/02/22-rdf-syntax-ns#"
   xmlns:svg="http://www.w3.org/2000/svg"
   xmlns="http://www.w3.org/2000/svg"
   xmlns:inkscape="http://www.inkscape.org/namespaces/inkscape"
   version="1.1"
   width="46.474998"
   height="40.849998"
   id="svg2"
   xml:space="preserve"><metadata
     id="metadata8"><rdf:RDF><cc:Work
         rdf:about=""><dc:format>image/svg+xml</dc:format><dc:type
           rdf:resource="http://purl.org/dc/dcmitype/StillImage" /></cc:Work></rdf:RDF></metadata><defs
     id="defs6" /><g
     transform="matrix(1.25,0,0,-1.25,0,40.85)"
     id="g10"><g
       transform="scale(0.1,0.1)"
       id="g12"><path
         d="m 369.859,253.301 c 0,-39.512 -82.343,-71.535 -183.925,-71.535 -101.5824,0 -183.93009,32.023 -183.93009,71.535 l 0,-179.7776 c 0,-39.5 82.34769,-71.51949 183.93009,-71.51949 101.582,0 183.925,32.01949 183.925,71.51949 l 0,179.7776"
         inkscape:connector-curvature="0"
         id="path14"
         style="fill:#000000;fill-opacity:1;fill-rule:nonzero;stroke:none" /><path
         d="m 369.859,253.301 c 0,-39.512 -82.343,-71.535 -183.925,-71.535 -101.5824,0 -183.93009,32.023 -183.93009,71.535 l 0,-179.7776 c 0,-39.5 82.34769,-71.51949 183.93009,-71.51949 101.582,0 183.925,32.01949 183.925,71.51949 l 0,179.7776 z"
         inkscape:connector-curvature="0"
         id="path16"
         style="fill:none;stroke:#ffffff;stroke-width:4;stroke-linecap:butt;stroke-linejoin:miter;stroke-miterlimit:4;stroke-opacity:1;stroke-dasharray:none" /><path
         d="m 185.934,181.766 c 101.582,0 183.925,32.023 183.925,71.535 0,39.492 -82.343,71.511 -183.925,71.511 -101.5824,0 -183.93009,-32.019 -183.93009,-71.511 0,-39.512 82.34769,-71.535 183.93009,-71.535"
         inkscape:connector-curvature="0"
         id="path18"
         style="fill:#000000;fill-opacity:1;fill-rule:nonzero;stroke:none" /><path
         d="m 185.934,181.766 c 101.582,0 183.925,32.023 183.925,71.535 0,39.492 -82.343,71.511 -183.925,71.511 -101.5824,0 -183.93009,-32.019 -183.93009,-71.511 0,-39.512 82.34769,-71.535 183.93009,-71.535 z"
         inkscape:connector-curvature="0"
         id="path20"
         style="fill:none;stroke:#ffffff;stroke-width:4;stroke-linecap:butt;stroke-linejoin:miter;stroke-miterlimit:4;stroke-opacity:1;stroke-dasharray:none" /><path
         d="m 143.922,281.262 15.195,-22.785 -57.422,-13.274 12.539,10.449 -88.7496,15.168 22.2656,16.692 85.645,-14.504 10.527,8.254"
         inkscape:connector-curvature="0"
         id="path22"
         style="fill:#ffffff;fill-opacity:1;fill-rule:nonzero;stroke:none" /><path
         d="m 224.723,226.016 -10.352,23.488 51.797,10.348 -8.984,-8.047 86.328,-14.746 -20.723,-16.571 -85.801,16.114 -12.265,-10.586"
         inkscape:connector-curvature="0"
         id="path24"
         style="fill:#ffffff;fill-opacity:1;fill-rule:nonzero;stroke:none" /><path
         d="m 196.402,293.691 58.028,15.887 0.683,-24.859 -14.511,2.761 -28.301,-23.476 -27.031,3.926 29.238,22.976 -18.106,2.785"
         inkscape:connector-curvature="0"
         id="path26"
         style="fill:#ffffff;fill-opacity:1;fill-rule:nonzero;stroke:none" /><path
         d="m 171.539,204.598 -55.234,-10.348 -2.071,25.555 15.879,-3.457 30.41,25.964 26.915,-4.55 -32.461,-28.321 16.562,-4.843"
         inkscape:connector-curvature="0"
         id="path28"
         style="fill:#ffffff;fill-opacity:1;fill-rule:nonzero;stroke:none" /><path
         d="m 278.688,54.9727 0,45.9573 -27.696,-22.0823 27.696,-23.875"
         inkscape:connector-curvature="0"
         id="path30"
         style="fill:#ffffff;fill-opacity:1;fill-rule:nonzero;stroke:none" /><path
         d="m 278.688,54.9727 0,45.9573 -27.696,-22.0823 27.696,-23.875 z"
         inkscape:connector-curvature="0"
         id="path32"
         style="fill:none;stroke:#ffffff;stroke-width:0.75999999;stroke-linecap:butt;stroke-linejoin:miter;stroke-miterlimit:4;stroke-opacity:1;stroke-dasharray:none" /><path
         d="m 83.0039,54.9727 0,45.9573 L 110.68,78.8477 83.0039,54.9727"
         inkscape:connector-curvature="0"
         id="path34"
         style="fill:#ffffff;fill-opacity:1;fill-rule:nonzero;stroke:none" /><path
         d="m 83.0039,54.9727 0,45.9573 L 110.68,78.8477 83.0039,54.9727 z"
         inkscape:connector-curvature="0"
         id="path36"
         style="fill:none;stroke:#ffffff;stroke-width:0.75999999;stroke-linecap:butt;stroke-linejoin:miter;stroke-miterlimit:4;stroke-opacity:1;stroke-dasharray:none" /><path
         d="m 101.578,146.199 0,-45.957 -27.6952,22.063 27.6952,23.894"
         inkscape:connector-curvature="0"
         id="path38"
         style="fill:#ffffff;fill-opacity:1;fill-rule:nonzero;stroke:none" /><path
         d="m 101.578,146.199 0,-45.957 -27.6952,22.063 27.6952,23.894 z"
         inkscape:connector-curvature="0"
         id="path40"
         style="fill:none;stroke:#ffffff;stroke-width:0.75999999;stroke-linecap:butt;stroke-linejoin:miter;stroke-miterlimit:4;stroke-opacity:1;stroke-dasharray:none" /><path
         d="m 258.004,146.199 0,-45.957 27.695,22.063 -27.695,23.894"
         inkscape:connector-curvature="0"
         id="path42"
         style="fill:#ffffff;fill-opacity:1;fill-rule:nonzero;stroke:none" /><path
         d="m 258.004,146.199 0,-45.957 27.695,22.063 -27.695,23.894 z"
         inkscape:connector-curvature="0"
         id="path44"
         style="fill:none;stroke:#ffffff;stroke-width:0.75999999;stroke-linecap:butt;stroke-linejoin:miter;stroke-miterlimit:4;stroke-opacity:1;stroke-dasharray:none" /><path
         d="m 264.02,123.809 -16.719,0"
         inkscape:connector-curvature="0"
         id="path46"
         style="fill:none;stroke:#ffffff;stroke-width:7.5999999;stroke-linecap:butt;stroke-linejoin:miter;stroke-miterlimit:4;stroke-opacity:1;stroke-dasharray:none" /><path
         d="m 269.859,79.2188 20.918,0"
         inkscape:connector-curvature="0"
         id="path48"
         style="fill:none;stroke:#ffffff;stroke-width:7.5999999;stroke-linecap:butt;stroke-linejoin:miter;stroke-miterlimit:4;stroke-opacity:1;stroke-dasharray:none" /><path
         d="m 90.4062,79.2188 -22.2851,0"
         inkscape:connector-curvature="0"
         id="path50"
         style="fill:none;stroke:#ffffff;stroke-width:7.5999999;stroke-linecap:butt;stroke-linejoin:miter;stroke-miterlimit:4;stroke-opacity:1;stroke-dasharray:none" /><path
         d="m 91.3633,122.422 20.9177,0"
         inkscape:connector-curvature="0"
         id="path52"
         style="fill:none;stroke:#ffffff;stroke-width:7.5999999;stroke-linecap:butt;stroke-linejoin:miter;stroke-miterlimit:4;stroke-opacity:1;stroke-dasharray:none" /><path
         d="m 228.98,121.453 -0.136,-83.4842 -96.739,0 -0.117,83.4842 96.992,0"
         inkscape:connector-curvature="0"
         id="path54"
         style="fill:#ffffff;fill-opacity:1;fill-rule:nonzero;stroke:none" /><path
         d="m 142.613,97.5273 76.0156,0 0,15.2148 -76.0156,0 0,-15.2148 z"
         inkscape:connector-curvature="0"
         id="path56"
         style="fill:none;stroke:#030303;stroke-width:1.51999998;stroke-linecap:butt;stroke-linejoin:miter;stroke-miterlimit:4;stroke-opacity:1;stroke-dasharray:none" /><path
         d="m 142.613,45.9766 76.0156,0 0,37.9961 -76.0156,0 0,-37.9961 z"
         inkscape:connector-curvature="0"
         id="path58"
         style="fill:none;stroke:#030303;stroke-width:1.51999998;stroke-linecap:butt;stroke-linejoin:miter;stroke-miterlimit:4;stroke-opacity:1;stroke-dasharray:none" /><path
         d="m 200.348,151.133 c 0,0 4.785,0.539 5.859,-4.27 l 1.055,-15.429 31.933,-5.309 3.184,6.91 -7.988,19.153 c -40.957,10.117 -55.313,6.914 -55.313,6.914 l 1.582,0 c 0,0 -14.355,3.203 -55.332,-6.914 l -7.969,-19.153 3.184,-6.91 31.934,5.309 1.054,15.429 c 1.055,4.809 5.86,4.27 5.86,4.27 l 40.957,0"
         inkscape:connector-curvature="0"
         id="path60"
         style="fill:#ffffff;fill-opacity:1;fill-rule:nonzero;stroke:none" /><path
         d="m 218.629,90.8867 -76.016,0"
         inkscape:connector-curvature="0"
         id="path62"
         style="fill:none;stroke:#030303;stroke-width:1.51999998;stroke-linecap:butt;stroke-linejoin:miter;stroke-miterlimit:4;stroke-opacity:1;stroke-dasharray:none" /></g></g></svg>