<?xml version="1.0" encoding="UTF-8" standalone="no"?>
<!-- Created with Inkscape (http://www.inkscape.org/) -->

<svg
   xmlns:dc="http://purl.org/dc/elements/1.1/"
   xmlns:cc="http://creativecommons.org/ns#"
   xmlns:rdf="http://www.w3.org/1999/02/22-rdf-syntax-ns#"
   xmlns:svg="http://www.w3.org/2000/svg"
   xmlns="http://www.w3.org/2000/svg"
   xmlns:inkscape="http://www.inkscape.org/namespaces/inkscape"
   version="1.1"
   width="47.137501"
   height="31.325001"
   id="svg2"
   xml:space="preserve"><metadata
     id="metadata8"><rdf:RDF><cc:Work
         rdf:about=""><dc:format>image/svg+xml</dc:format><dc:type
           rdf:resource="http://purl.org/dc/dcmitype/StillImage" /></cc:Work></rdf:RDF></metadata><defs
     id="defs6" /><g
     transform="matrix(1.25,0,0,-1.25,0,31.325)"
     id="g10"><g
       transform="scale(0.1,0.1)"
       id="g12"><path
         d="m 5.11328,6.04688 303.73,0 0,171.836 -303.73,0 0,-171.836 z"
         inkscape:connector-curvature="0"
         id="path14"
         style="fill:#000000;fill-opacity:1;fill-rule:nonzero;stroke:none" /><path
         d="m 5.11328,6.04688 303.73,0 0,171.836 -303.73,0 0,-171.836 z"
         inkscape:connector-curvature="0"
         id="path16"
         style="fill:none;stroke:#ffffff;stroke-width:4;stroke-linecap:butt;stroke-linejoin:miter;stroke-miterlimit:4;stroke-opacity:1;stroke-dasharray:none" /><path
         d="m 309.066,5.1875 0,171.8355 62.707,68.418 0,-170.9762 -62.707,-69.2773"
         inkscape:connector-curvature="0"
         id="path18"
         style="fill:#000000;fill-opacity:1;fill-rule:nonzero;stroke:none" /><path
         d="m 309.066,5.1875 0,171.8355 62.707,68.418 0,-170.9762 -62.707,-69.2773 z"
         inkscape:connector-curvature="0"
         id="path20"
         style="fill:none;stroke:#ffffff;stroke-width:4;stroke-linecap:butt;stroke-linejoin:miter;stroke-miterlimit:4;stroke-opacity:1;stroke-dasharray:none" /><path
         d="m 309.086,178.02 -303.86334,0 75.12504,67.382 292.0903,0.25 -63.352,-67.632"
         inkscape:connector-curvature="0"
         id="path22"
         style="fill:#000000;fill-opacity:1;fill-rule:nonzero;stroke:none" /><path
         d="m 309.086,178.02 -303.86334,0 75.12504,67.382 292.0903,0.25 -63.352,-67.632 z"
         inkscape:connector-curvature="0"
         id="path24"
         style="fill:none;stroke:#ffffff;stroke-width:4;stroke-linecap:butt;stroke-linejoin:miter;stroke-miterlimit:4;stroke-opacity:1;stroke-dasharray:none" /><path
         d="m 68.9453,114.387 -54.3711,-0.039 0,10.156 54.3711,0.035 0.0195,15.852 31.4412,-20.938 -31.4412,-20.9452 -0.0195,15.8792"
         inkscape:connector-curvature="0"
         id="path26"
         style="fill:#ffffff;fill-opacity:1;fill-rule:nonzero;stroke:none" /><path
         d="m 266.637,141.211 -46.168,-0.027 0,8.632 46.168,0.028 0,13.476 26.726,-17.8 -26.726,-17.805 0,13.496"
         inkscape:connector-curvature="0"
         id="path28"
         style="fill:#ffffff;fill-opacity:1;fill-rule:nonzero;stroke:none" /><path
         d="m 266.637,87.3828 -46.168,-0.039 0,8.6328 46.168,0.0312 0,13.4762 26.726,-17.8043 -26.726,-17.793 0,13.4961"
         inkscape:connector-curvature="0"
         id="path30"
         style="fill:#ffffff;fill-opacity:1;fill-rule:nonzero;stroke:none" /><path
         d="m 266.637,33.5547 -46.168,-0.0469 0,8.6328 46.168,0.0391 0,13.4648 26.726,-17.7929 -26.726,-17.8008 0,13.5039"
         inkscape:connector-curvature="0"
         id="path32"
         style="fill:#ffffff;fill-opacity:1;fill-rule:nonzero;stroke:none" /><path
         d="m 108.027,82.2461 77.1484,0 0,65.3438 -77.1484,0 0,-65.3438 z"
         inkscape:connector-curvature="0"
         id="path34"
         style="fill:#ffffff;fill-opacity:1;fill-rule:nonzero;stroke:none" /><path
         d="m 191.898,109.641 15.4375,0 0,29.4141 -15.4375,0 0,-29.4141 z"
         inkscape:connector-curvature="0"
         id="path36"
         style="fill:#ffffff;fill-opacity:1;fill-rule:nonzero;stroke:none" /><path
         d="m 191.898,109.641 15.4375,0 0,29.4141 -15.4375,0 0,-29.4141 z"
         inkscape:connector-curvature="0"
         id="path38"
         style="fill:none;stroke:#000000;stroke-width:2.17799997;stroke-linecap:butt;stroke-linejoin:miter;stroke-miterlimit:4;stroke-opacity:1;stroke-dasharray:none" /><path
         d="m 118.051,40.3438 28.551,74.5782 29.527,-74.7658"
         inkscape:connector-curvature="0"
         id="path40"
         style="fill:none;stroke:#ffffff;stroke-width:9.68000031;stroke-linecap:round;stroke-linejoin:miter;stroke-miterlimit:4;stroke-opacity:1;stroke-dasharray:none" /><path
         d="m 168.199,123.535 23.145,0"
         inkscape:connector-curvature="0"
         id="path42"
         style="fill:none;stroke:#ffffff;stroke-width:15;stroke-linecap:round;stroke-linejoin:miter;stroke-miterlimit:4;stroke-opacity:1;stroke-dasharray:none" /></g></g></svg>