<?xml version="1.0" encoding="UTF-8" standalone="no"?>
<!-- Created with Inkscape (http://www.inkscape.org/) -->

<svg
   xmlns:dc="http://purl.org/dc/elements/1.1/"
   xmlns:cc="http://creativecommons.org/ns#"
   xmlns:rdf="http://www.w3.org/1999/02/22-rdf-syntax-ns#"
   xmlns:svg="http://www.w3.org/2000/svg"
   xmlns="http://www.w3.org/2000/svg"
   xmlns:inkscape="http://www.inkscape.org/namespaces/inkscape"
   version="1.1"
   width="40"
   height="40"
   id="svg2"
   xml:space="preserve"><metadata
     id="metadata8"><rdf:RDF><cc:Work
         rdf:about=""><dc:format>image/svg+xml</dc:format><dc:type
           rdf:resource="http://purl.org/dc/dcmitype/StillImage" /></cc:Work></rdf:RDF></metadata><defs
     id="defs6"><clipPath
       id="clipPath18"><path
         d="M 0,0 32,0 32,32 0,32 0,0 z"
         inkscape:connector-curvature="0"
         id="path20" /></clipPath></defs><g
     transform="matrix(1.25,0,0,-1.25,0,40)"
     id="g10"><g
       id="g12" /><g
       id="g14"><g
         clip-path="url(#clipPath18)"
         id="g16"><path
           d="m 0.793,27.182 26.707,0 0,-26.682 -26.707,0 0,26.682 z"
           inkscape:connector-curvature="0"
           id="path22"
           style="fill:#000000;fill-opacity:1;fill-rule:nonzero;stroke:none" /><path
           d="m 30.873,3.84 0,26.683 -3.373,-3.341 0,-26.682 3.373,3.34 z"
           inkscape:connector-curvature="0"
           id="path24"
           style="fill:#000000;fill-opacity:1;fill-rule:nonzero;stroke:#ffffff;stroke-width:0.40000001;stroke-linecap:butt;stroke-linejoin:miter;stroke-miterlimit:4;stroke-opacity:1;stroke-dasharray:none" /><path
           d="m 5.433,30.714 -4.64,-3.34 26.707,0 3.373,3.34 -25.44,0"
           inkscape:connector-curvature="0"
           id="path26"
           style="fill:#000000;fill-opacity:1;fill-rule:nonzero;stroke:none" /><path
           d="m 27.5,27.182 -26.707,0 m 26.707,0 3.373,3.341"
           inkscape:connector-curvature="0"
           id="path28"
           style="fill:none;stroke:#191919;stroke-width:0.40000001;stroke-linecap:butt;stroke-linejoin:miter;stroke-miterlimit:4;stroke-opacity:1;stroke-dasharray:none" /><path
           d="M 27.5,27.182 27.5,0.5 m 0,26.682 -26.707,0 m 26.707,0 3.373,3.341"
           inkscape:connector-curvature="0"
           id="path30"
           style="fill:none;stroke:#ffffff;stroke-width:0.40000001;stroke-linecap:butt;stroke-linejoin:miter;stroke-miterlimit:4;stroke-opacity:1;stroke-dasharray:none" /><path
           d="m 14.725,17.721 0,5.773 0.979,0 -1.445,2.179 -1.445,-2.179 0.979,0 0,-5.773 0.932,0"
           inkscape:connector-curvature="0"
           id="path32"
           style="fill:#ffffff;fill-opacity:1;fill-rule:nonzero;stroke:none" /><path
           d="m 11.779,16.887 -4.082,4.082 0.693,0.693 -2.563,0.519 0.519,-2.563 0.692,0.692 4.082,-4.082 0.659,0.659"
           inkscape:connector-curvature="0"
           id="path34"
           style="fill:#ffffff;fill-opacity:1;fill-rule:nonzero;stroke:none" /><path
           d="m 10.286,14.215 -5.773,0 0,0.979 -2.179,-1.445 2.179,-1.446 0,0.98 5.773,0 0,0.932"
           inkscape:connector-curvature="0"
           id="path36"
           style="fill:#ffffff;fill-opacity:1;fill-rule:nonzero;stroke:none" /><path
           d="M 11.12,11.269 7.038,7.187 6.346,7.879 5.827,5.317 8.39,5.836 7.697,6.528 11.779,10.61 11.12,11.269"
           inkscape:connector-curvature="0"
           id="path38"
           style="fill:#ffffff;fill-opacity:1;fill-rule:nonzero;stroke:none" /><path
           d="m 13.793,9.776 0,-5.773 -0.979,0 1.445,-2.179 1.445,2.179 -0.979,0 0,5.773 -0.932,0"
           inkscape:connector-curvature="0"
           id="path40"
           style="fill:#ffffff;fill-opacity:1;fill-rule:nonzero;stroke:none" /><path
           d="M 16.738,10.61 20.82,6.528 20.128,5.836 22.691,5.317 22.172,7.879 21.479,7.187 17.397,11.269 16.738,10.61"
           inkscape:connector-curvature="0"
           id="path42"
           style="fill:#ffffff;fill-opacity:1;fill-rule:nonzero;stroke:none" /><path
           d="m 18.231,13.283 5.773,0 0,-0.98 2.18,1.446 -2.18,1.445 0,-0.979 -5.773,0 0,-0.932"
           inkscape:connector-curvature="0"
           id="path44"
           style="fill:#ffffff;fill-opacity:1;fill-rule:nonzero;stroke:none" /><path
           d="m 17.397,16.228 4.082,4.082 0.693,-0.692 0.519,2.563 -2.563,-0.519 0.692,-0.693 -4.082,-4.082 0.659,-0.659"
           inkscape:connector-curvature="0"
           id="path46"
           style="fill:#ffffff;fill-opacity:1;fill-rule:nonzero;stroke:none" /><path
           d="m 17.802,8.862 c 2.724,1.907 3.386,5.662 1.479,8.386 -1.908,2.724 -5.662,3.386 -8.386,1.478 C 8.171,16.819 7.509,13.064 9.416,10.34 11.324,7.616 15.078,6.954 17.802,8.862"
           inkscape:connector-curvature="0"
           id="path48"
           style="fill:#ffffff;fill-opacity:1;fill-rule:nonzero;stroke:none" /><path
           d="m 17.802,8.862 c 2.724,1.907 3.386,5.662 1.479,8.386 -1.908,2.724 -5.662,3.386 -8.386,1.478 C 8.171,16.819 7.509,13.064 9.416,10.34 11.324,7.616 15.078,6.954 17.802,8.862 z"
           inkscape:connector-curvature="0"
           id="path50"
           style="fill:none;stroke:#000000;stroke-width:0.40000001;stroke-linecap:butt;stroke-linejoin:miter;stroke-miterlimit:4;stroke-opacity:1;stroke-dasharray:none" /></g></g></g></svg>