<?xml version="1.0" encoding="UTF-8" standalone="no"?>
<!-- Created with Inkscape (http://www.inkscape.org/) -->

<svg
   xmlns:dc="http://purl.org/dc/elements/1.1/"
   xmlns:cc="http://creativecommons.org/ns#"
   xmlns:rdf="http://www.w3.org/1999/02/22-rdf-syntax-ns#"
   xmlns:svg="http://www.w3.org/2000/svg"
   xmlns="http://www.w3.org/2000/svg"
   xmlns:inkscape="http://www.inkscape.org/namespaces/inkscape"
   version="1.1"
   width="23.75"
   height="62.5"
   id="svg2"
   xml:space="preserve"><metadata
     id="metadata8"><rdf:RDF><cc:Work
         rdf:about=""><dc:format>image/svg+xml</dc:format><dc:type
           rdf:resource="http://purl.org/dc/dcmitype/StillImage" /></cc:Work></rdf:RDF></metadata><defs
     id="defs6"><clipPath
       id="clipPath18"><path
         d="M 0,0 19,0 19,50 0,50 0,0 z"
         inkscape:connector-curvature="0"
         id="path20" /></clipPath><clipPath
       id="clipPath34"><path
         d="m 13.949,45.423 0.519,0.637 0.357,0 0,-3.346 2.152,0 0.199,-0.199 0.199,0 0.338,0.338 c 0.339,0.14 0.538,-0.498 0.538,-0.498 l 0,-0.238 c 0,0 -0.199,-0.638 -0.538,-0.499 l -0.338,0.339 -0.199,0 -0.199,-0.198 -2.152,0 0,-3.347 -0.357,0 -0.519,0.638 0,6.373"
         inkscape:connector-curvature="0"
         id="path36" /></clipPath><clipPath
       id="clipPath40"><path
         d="M 0,0 19,0 19,50 0,50 0,0 z"
         inkscape:connector-curvature="0"
         id="path42" /></clipPath><clipPath
       id="clipPath50"><path
         d="M 0,0 19,0 19,50 0,50 0,0 z"
         inkscape:connector-curvature="0"
         id="path52" /></clipPath><clipPath
       id="clipPath62"><path
         d="m 13.949,45.423 0.519,0.637 0.357,0 0,-3.346 2.152,0 0.199,-0.199 0.199,0 0.338,0.338 c 0.339,0.14 0.538,-0.498 0.538,-0.498 l 0,-0.238 c 0,0 -0.199,-0.638 -0.538,-0.499 l -0.338,0.339 -0.199,0 -0.199,-0.198 -2.152,0 0,-3.347 -0.357,0 -0.519,0.638 0,6.373"
         inkscape:connector-curvature="0"
         id="path64" /></clipPath><clipPath
       id="clipPath68"><path
         d="M 0,0 19,0 19,50 0,50 0,0 z"
         inkscape:connector-curvature="0"
         id="path70" /></clipPath><clipPath
       id="clipPath78"><path
         d="M 0,0 19,0 19,50 0,50 0,0 z"
         inkscape:connector-curvature="0"
         id="path80" /></clipPath><clipPath
       id="clipPath90"><path
         d="m 13.949,35.098 0.519,0.637 0.357,0 0,-3.346 2.152,0 0.199,-0.199 0.199,0 0.338,0.339 c 0.339,0.139 0.538,-0.499 0.538,-0.499 l 0,-0.238 c 0,0 -0.199,-0.638 -0.538,-0.498 l -0.338,0.339 -0.199,0 -0.199,-0.199 -2.152,0 0,-3.346 -0.357,0 -0.519,0.637 0,6.373"
         inkscape:connector-curvature="0"
         id="path92" /></clipPath><clipPath
       id="clipPath96"><path
         d="M 0,0 19,0 19,50 0,50 0,0 z"
         inkscape:connector-curvature="0"
         id="path98" /></clipPath><clipPath
       id="clipPath106"><path
         d="M 0,0 19,0 19,50 0,50 0,0 z"
         inkscape:connector-curvature="0"
         id="path108" /></clipPath><clipPath
       id="clipPath118"><path
         d="m 13.949,35.098 0.519,0.637 0.357,0 0,-3.346 2.152,0 0.199,-0.199 0.199,0 0.338,0.339 c 0.339,0.139 0.538,-0.499 0.538,-0.499 l 0,-0.238 c 0,0 -0.199,-0.638 -0.538,-0.498 l -0.338,0.339 -0.199,0 -0.199,-0.199 -2.152,0 0,-3.346 -0.357,0 -0.519,0.637 0,6.373"
         inkscape:connector-curvature="0"
         id="path120" /></clipPath><clipPath
       id="clipPath124"><path
         d="M 0,0 19,0 19,50 0,50 0,0 z"
         inkscape:connector-curvature="0"
         id="path126" /></clipPath><clipPath
       id="clipPath134"><path
         d="M 0,0 19,0 19,50 0,50 0,0 z"
         inkscape:connector-curvature="0"
         id="path136" /></clipPath></defs><g
     transform="matrix(1.25,0,0,-1.25,0,62.5)"
     id="g10"><g
       id="g12" /><g
       id="g14"><g
         clip-path="url(#clipPath18)"
         id="g16"><path
           d="m 5.315,45.981 6.3,0 0,-22.4 -6.3,0 0,22.4 z"
           inkscape:connector-curvature="0"
           id="path22"
           style="fill:#ffffff;fill-opacity:1;fill-rule:nonzero;stroke:none" /><path
           d="m 5.315,45.981 6.3,0 0,-22.4 -6.3,0 0,22.4 z"
           inkscape:connector-curvature="0"
           id="path24"
           style="fill:none;stroke:#000000;stroke-width:0.80000001;stroke-linecap:butt;stroke-linejoin:miter;stroke-miterlimit:1;stroke-opacity:1;stroke-dasharray:none" /><path
           d="m 1.159,1.356 4.156,22.4 6.3,0 3.719,-22.4"
           inkscape:connector-curvature="0"
           id="path26"
           style="fill:#ffffff;fill-opacity:1;fill-rule:nonzero;stroke:none" /><path
           d="m 1.159,1.356 4.156,22.4 6.3,0 3.719,-22.4 m -14.394,0 12.951,6.475 -10.5,5.95 8.75,5.425 -6.476,4.375 5.775,7.7 -5.95,4.901 6.125,5.424 -6.3,4.201 M 15.44,1.356 2.941,7.831 l 10.5,5.95 -8.75,5.425 6.475,4.375 -5.774,7.7 5.95,4.901 -6.125,5.424 6.3,4.201 m -0.276,0.174 -5.775,0 1.44,2.791 2.83,0 1.505,-2.791 z"
           inkscape:connector-curvature="0"
           id="path28"
           style="fill:none;stroke:#000000;stroke-width:0.80000001;stroke-linecap:butt;stroke-linejoin:miter;stroke-miterlimit:1;stroke-opacity:1;stroke-dasharray:none" /></g></g><g
       id="g30"><g
         clip-path="url(#clipPath34)"
         id="g32"><g
           clip-path="url(#clipPath40)"
           id="g38"><path
             d="m 13.949,46.06 2.099,0 0,-7.647 -2.099,0 0,7.647 z"
             inkscape:connector-curvature="0"
             id="path44"
             style="fill:#333333;fill-opacity:1;fill-rule:nonzero;stroke:none" /></g></g></g><g
       id="g46"><g
         clip-path="url(#clipPath50)"
         id="g48"><path
           d="m 13.949,45.423 0.519,0.637 0.357,0 0,-3.346 2.152,0 0.199,-0.199 0.199,0 0.338,0.338 c 0.339,0.14 0.538,-0.498 0.538,-0.498 l 0,-0.238 c 0,0 -0.199,-0.638 -0.538,-0.499 l -0.338,0.339 -0.199,0 -0.199,-0.198 -2.152,0 0,-3.347 -0.357,0 -0.519,0.638 0,6.373 z"
           inkscape:connector-curvature="0"
           id="path54"
           style="fill:none;stroke:#000000;stroke-width:0.80000001;stroke-linecap:butt;stroke-linejoin:miter;stroke-miterlimit:1;stroke-opacity:1;stroke-dasharray:none" /><path
           d="m 13.949,39.05 -1.115,0 c -0.598,0.678 -0.518,2.071 -0.518,2.071 l -1.155,0 0,2.231 1.155,0 c 0,0 -0.08,1.393 0.518,2.071 l 1.115,0 0,-6.373 z"
           inkscape:connector-curvature="0"
           id="path56"
           style="fill:#b3b3b3;fill-opacity:1;fill-rule:nonzero;stroke:#000000;stroke-width:0.80000001;stroke-linecap:butt;stroke-linejoin:miter;stroke-miterlimit:1;stroke-opacity:1;stroke-dasharray:none" /></g></g><g
       id="g58"><g
         clip-path="url(#clipPath62)"
         id="g60"><g
           clip-path="url(#clipPath68)"
           id="g66"><path
             d="m 13.949,46.06 2.099,0 0,-7.647 -2.099,0 0,7.647 z"
             inkscape:connector-curvature="0"
             id="path72"
             style="fill:#333333;fill-opacity:1;fill-rule:nonzero;stroke:none" /></g></g></g><g
       id="g74"><g
         clip-path="url(#clipPath78)"
         id="g76"><path
           d="m 13.949,45.423 0.519,0.637 0.357,0 0,-3.346 2.152,0 0.199,-0.199 0.199,0 0.338,0.338 c 0.339,0.14 0.538,-0.498 0.538,-0.498 l 0,-0.238 c 0,0 -0.199,-0.638 -0.538,-0.499 l -0.338,0.339 -0.199,0 -0.199,-0.198 -2.152,0 0,-3.347 -0.357,0 -0.519,0.638 0,6.373 z"
           inkscape:connector-curvature="0"
           id="path82"
           style="fill:none;stroke:#000000;stroke-width:0.80000001;stroke-linecap:butt;stroke-linejoin:miter;stroke-miterlimit:1;stroke-opacity:1;stroke-dasharray:none" /><path
           d="m 13.949,39.05 -1.115,0 c -0.598,0.678 -0.518,2.071 -0.518,2.071 l -1.155,0 0,2.231 1.155,0 c 0,0 -0.08,1.393 0.518,2.071 l 1.115,0 0,-6.373 z"
           inkscape:connector-curvature="0"
           id="path84"
           style="fill:#b3b3b3;fill-opacity:1;fill-rule:nonzero;stroke:#000000;stroke-width:0.80000001;stroke-linecap:butt;stroke-linejoin:miter;stroke-miterlimit:1;stroke-opacity:1;stroke-dasharray:none" /></g></g><g
       id="g86"><g
         clip-path="url(#clipPath90)"
         id="g88"><g
           clip-path="url(#clipPath96)"
           id="g94"><path
             d="m 13.949,35.735 2.099,0 0,-7.648 -2.099,0 0,7.648 z"
             inkscape:connector-curvature="0"
             id="path100"
             style="fill:#333333;fill-opacity:1;fill-rule:nonzero;stroke:none" /></g></g></g><g
       id="g102"><g
         clip-path="url(#clipPath106)"
         id="g104"><path
           d="m 13.949,35.098 0.519,0.637 0.357,0 0,-3.346 2.152,0 0.199,-0.199 0.199,0 0.338,0.339 c 0.339,0.139 0.538,-0.499 0.538,-0.499 l 0,-0.238 c 0,0 -0.199,-0.638 -0.538,-0.498 l -0.338,0.339 -0.199,0 -0.199,-0.199 -2.152,0 0,-3.346 -0.357,0 -0.519,0.637 0,6.373 z"
           inkscape:connector-curvature="0"
           id="path110"
           style="fill:none;stroke:#000000;stroke-width:0.80000001;stroke-linecap:butt;stroke-linejoin:miter;stroke-miterlimit:1;stroke-opacity:1;stroke-dasharray:none" /><path
           d="m 13.949,28.725 -1.115,0 c -0.598,0.677 -0.518,2.071 -0.518,2.071 l -1.155,0 0,2.23 1.155,0 c 0,0 -0.08,1.394 0.518,2.072 l 1.115,0 0,-6.373 z"
           inkscape:connector-curvature="0"
           id="path112"
           style="fill:#b3b3b3;fill-opacity:1;fill-rule:nonzero;stroke:#000000;stroke-width:0.80000001;stroke-linecap:butt;stroke-linejoin:miter;stroke-miterlimit:1;stroke-opacity:1;stroke-dasharray:none" /></g></g><g
       id="g114"><g
         clip-path="url(#clipPath118)"
         id="g116"><g
           clip-path="url(#clipPath124)"
           id="g122"><path
             d="m 13.949,35.735 2.099,0 0,-7.648 -2.099,0 0,7.648 z"
             inkscape:connector-curvature="0"
             id="path128"
             style="fill:#333333;fill-opacity:1;fill-rule:nonzero;stroke:none" /></g></g></g><g
       id="g130"><g
         clip-path="url(#clipPath134)"
         id="g132"><path
           d="m 13.949,35.098 0.519,0.637 0.357,0 0,-3.346 2.152,0 0.199,-0.199 0.199,0 0.338,0.339 c 0.339,0.139 0.538,-0.499 0.538,-0.499 l 0,-0.238 c 0,0 -0.199,-0.638 -0.538,-0.498 l -0.338,0.339 -0.199,0 -0.199,-0.199 -2.152,0 0,-3.346 -0.357,0 -0.519,0.637 0,6.373 z"
           inkscape:connector-curvature="0"
           id="path138"
           style="fill:none;stroke:#000000;stroke-width:0.80000001;stroke-linecap:butt;stroke-linejoin:miter;stroke-miterlimit:1;stroke-opacity:1;stroke-dasharray:none" /><path
           d="m 13.949,28.725 -1.115,0 c -0.598,0.677 -0.518,2.071 -0.518,2.071 l -1.155,0 0,2.23 1.155,0 c 0,0 -0.08,1.394 0.518,2.072 l 1.115,0 0,-6.373 z"
           inkscape:connector-curvature="0"
           id="path140"
           style="fill:#b3b3b3;fill-opacity:1;fill-rule:nonzero;stroke:#000000;stroke-width:0.80000001;stroke-linecap:butt;stroke-linejoin:miter;stroke-miterlimit:1;stroke-opacity:1;stroke-dasharray:none" /></g></g></g></svg>