<?xml version="1.0" encoding="UTF-8" standalone="no"?>
<!-- Created with Inkscape (http://www.inkscape.org/) -->

<svg
   xmlns:dc="http://purl.org/dc/elements/1.1/"
   xmlns:cc="http://creativecommons.org/ns#"
   xmlns:rdf="http://www.w3.org/1999/02/22-rdf-syntax-ns#"
   xmlns:svg="http://www.w3.org/2000/svg"
   xmlns="http://www.w3.org/2000/svg"
   xmlns:inkscape="http://www.inkscape.org/namespaces/inkscape"
   version="1.1"
   width="47.5"
   height="32.5"
   id="svg2"
   xml:space="preserve"><metadata
     id="metadata8"><rdf:RDF><cc:Work
         rdf:about=""><dc:format>image/svg+xml</dc:format><dc:type
           rdf:resource="http://purl.org/dc/dcmitype/StillImage" /></cc:Work></rdf:RDF></metadata><defs
     id="defs6"><clipPath
       id="clipPath18"><path
         d="M 0,0 38,0 38,26 0,26 0,0 z"
         inkscape:connector-curvature="0"
         id="path20" /></clipPath></defs><g
     transform="matrix(1.25,0,0,-1.25,0,32.5)"
     id="g10"><g
       id="g12" /><g
       id="g14"><g
         clip-path="url(#clipPath18)"
         id="g16"><path
           d="m 37.022,18.615 c 0,-3.95 -8.235,-7.153 -18.393,-7.153 -10.158,0 -18.393,3.203 -18.393,7.153 l 0,-10.477 c 0,-3.95 8.235,-7.153 18.393,-7.153 10.158,0 18.393,3.203 18.393,7.153 l 0,10.477 z"
           inkscape:connector-curvature="0"
           id="path22"
           style="fill:#000000;fill-opacity:1;fill-rule:nonzero;stroke:#ffffff;stroke-width:0.40000001;stroke-linecap:butt;stroke-linejoin:miter;stroke-miterlimit:4;stroke-opacity:1;stroke-dasharray:none" /><path
           d="m 18.629,11.462 c 10.158,0 18.393,3.203 18.393,7.153 0,3.95 -8.235,7.153 -18.393,7.153 -10.158,0 -18.393,-3.203 -18.393,-7.153 0,-3.95 8.235,-7.153 18.393,-7.153 z"
           inkscape:connector-curvature="0"
           id="path24"
           style="fill:#000000;fill-opacity:1;fill-rule:nonzero;stroke:#ffffff;stroke-width:0.40000001;stroke-linecap:butt;stroke-linejoin:miter;stroke-miterlimit:4;stroke-opacity:1;stroke-dasharray:none" /><path
           d="m 14.429,21.412 1.519,-2.279 -5.743,-1.327 1.255,1.046 -8.875,1.516 2.227,1.669 8.563,-1.451 1.054,0.826"
           inkscape:connector-curvature="0"
           id="path26"
           style="fill:#ffffff;fill-opacity:1;fill-rule:nonzero;stroke:none" /><path
           d="m 22.509,15.887 -1.036,2.348 5.179,1.036 -0.898,-0.805 8.633,-1.474 -2.072,-1.658 -8.58,1.612 -1.226,-1.059"
           inkscape:connector-curvature="0"
           id="path28"
           style="fill:#ffffff;fill-opacity:1;fill-rule:nonzero;stroke:none" /><path
           d="m 19.677,22.655 5.801,1.589 0.069,-2.487 -1.45,0.277 -2.831,-2.349 -2.702,0.394 2.922,2.298 -1.809,0.278"
           inkscape:connector-curvature="0"
           id="path30"
           style="fill:#ffffff;fill-opacity:1;fill-rule:nonzero;stroke:none" /><path
           d="m 17.191,13.746 -5.525,-1.036 -0.207,2.556 1.588,-0.346 3.041,2.597 2.691,-0.456 -3.245,-2.831 1.657,-0.484"
           inkscape:connector-curvature="0"
           id="path32"
           style="fill:#ffffff;fill-opacity:1;fill-rule:nonzero;stroke:none" /></g></g></g></svg>