<?xml version="1.0" encoding="UTF-8" standalone="no"?>
<!-- Created with Inkscape (http://www.inkscape.org/) -->

<svg
   xmlns:dc="http://purl.org/dc/elements/1.1/"
   xmlns:cc="http://creativecommons.org/ns#"
   xmlns:rdf="http://www.w3.org/1999/02/22-rdf-syntax-ns#"
   xmlns:svg="http://www.w3.org/2000/svg"
   xmlns="http://www.w3.org/2000/svg"
   xmlns:inkscape="http://www.inkscape.org/namespaces/inkscape"
   version="1.1"
   width="61.25"
   height="45"
   id="svg2"
   xml:space="preserve"><metadata
     id="metadata8"><rdf:RDF><cc:Work
         rdf:about=""><dc:format>image/svg+xml</dc:format><dc:type
           rdf:resource="http://purl.org/dc/dcmitype/StillImage" /></cc:Work></rdf:RDF></metadata><defs
     id="defs6"><clipPath
       id="clipPath18"><path
         d="M 0,0 49,0 49,36 0,36 0,0 z"
         inkscape:connector-curvature="0"
         id="path20" /></clipPath></defs><g
     transform="matrix(1.25,0,0,-1.25,0,45)"
     id="g10"><g
       id="g12" /><g
       id="g14"><g
         clip-path="url(#clipPath18)"
         id="g16"><path
           d="m 24.5,18.081 c 12.887,0 23.334,1.978 23.334,4.419 0,2.441 -10.447,4.419 -23.334,4.419 -12.887,0 -23.335,-1.978 -23.335,-4.419 0,-2.441 10.448,-4.419 23.335,-4.419 z"
           inkscape:connector-curvature="0"
           id="path22"
           style="fill:#ffffff;fill-opacity:1;fill-rule:nonzero;stroke:#000000;stroke-width:0.15000001;stroke-linecap:butt;stroke-linejoin:miter;stroke-miterlimit:4;stroke-opacity:1;stroke-dasharray:none" /><path
           d=""
           inkscape:connector-curvature="0"
           id="path24"
           style="fill:#ffffff;fill-opacity:1;fill-rule:nonzero;stroke:#000000;stroke-width:0.15000001;stroke-linecap:butt;stroke-linejoin:miter;stroke-miterlimit:4;stroke-opacity:1;stroke-dasharray:none" /><path
           d="m 24.625,10.331 c 12.887,0 23.209,9.728 23.209,12.169 0,2.441 -10.447,4.419 -23.334,4.419 -12.887,0 -23.335,-1.978 -23.335,-4.419 0,-2.441 10.573,-12.169 23.46,-12.169"
           inkscape:connector-curvature="0"
           id="path26"
           style="fill:#000000;fill-opacity:1;fill-rule:nonzero;stroke:none" /><path
           d="m 24.5,18.081 c 12.887,0 23.334,1.978 23.334,4.419 0,2.441 -10.447,4.419 -23.334,4.419 -12.887,0 -23.335,-1.978 -23.335,-4.419 0,-2.441 10.448,-4.419 23.335,-4.419 z"
           inkscape:connector-curvature="0"
           id="path28"
           style="fill:#ffffff;fill-opacity:1;fill-rule:nonzero;stroke:#000000;stroke-width:0.40000001;stroke-linecap:butt;stroke-linejoin:miter;stroke-miterlimit:4;stroke-opacity:1;stroke-dasharray:none" /><path
           d=""
           inkscape:connector-curvature="0"
           id="path30"
           style="fill:#ffffff;fill-opacity:1;fill-rule:nonzero;stroke:#000000;stroke-width:0.15000001;stroke-linecap:butt;stroke-linejoin:miter;stroke-miterlimit:4;stroke-opacity:1;stroke-dasharray:none" /><path
           d="M 18.434,25.808 C 14.752,25.584 11.485,25.156 8.933,24.584 m 9.749,0.301 c -3.573,-0.261 -6.7,-0.738 -9.063,-1.362 m 9.317,0.37 c -3.497,-0.302 -6.508,-0.837 -8.684,-1.524 m 9.186,0.368 c -3.415,-0.329 -6.32,-0.906 -8.347,-1.641 m 8.593,0.565 c -3.24,-0.373 -5.947,-0.998 -7.75,-1.778 m 8.19,0.505 c -2.569,-0.351 -4.75,-0.88 -6.318,-1.528 m 6.466,0.343 c -1.036,-0.188 -1.988,-0.41 -2.838,-0.66"
           inkscape:connector-curvature="0"
           id="path32"
           style="fill:none;stroke:#999999;stroke-width:0.375;stroke-linecap:butt;stroke-linejoin:miter;stroke-miterlimit:4;stroke-opacity:1;stroke-dasharray:none" /><path
           d="M 1.103,22.08 24.625,33.875 47.834,22.5"
           inkscape:connector-curvature="0"
           id="path34"
           style="fill:none;stroke:#000000;stroke-width:0.40000001;stroke-linecap:butt;stroke-linejoin:miter;stroke-miterlimit:4;stroke-opacity:1;stroke-dasharray:none" /><path
           d="m 24.75,30.892 c 0.878,0 1.591,0.356 1.591,0.796 0,0.439 -0.713,0.795 -1.591,0.795 -0.879,0 -1.591,-0.356 -1.591,-0.795 0,-0.44 0.712,-0.796 1.591,-0.796"
           inkscape:connector-curvature="0"
           id="path36"
           style="fill:#000000;fill-opacity:1;fill-rule:nonzero;stroke:none" /><path
           d="m 24.75,35.5 -0.5,-16.375 1.125,0 L 24.75,35.5"
           inkscape:connector-curvature="0"
           id="path38"
           style="fill:#000000;fill-opacity:1;fill-rule:nonzero;stroke:none" /><path
           d="m 19.625,10.125 11.25,0 0,-2.625 -11.25,0 0,2.625 z"
           inkscape:connector-curvature="0"
           id="path40"
           style="fill:#000000;fill-opacity:1;fill-rule:nonzero;stroke:none" /><path
           d="m 21.75,7.75 7.125,0 0,-4.75 c 0,0 -7.25,-2.25 -7.125,-2.25 0.125,0 0,7 0,7"
           inkscape:connector-curvature="0"
           id="path42"
           style="fill:#000000;fill-opacity:1;fill-rule:nonzero;stroke:none" /></g></g></g></svg>