<?xml version="1.0" encoding="UTF-8" standalone="no"?>
<!-- Created with Inkscape (http://www.inkscape.org/) -->

<svg
   xmlns:dc="http://purl.org/dc/elements/1.1/"
   xmlns:cc="http://creativecommons.org/ns#"
   xmlns:rdf="http://www.w3.org/1999/02/22-rdf-syntax-ns#"
   xmlns:svg="http://www.w3.org/2000/svg"
   xmlns="http://www.w3.org/2000/svg"
   xmlns:inkscape="http://www.inkscape.org/namespaces/inkscape"
   version="1.1"
   width="27.125"
   height="42.125"
   id="svg2"
   xml:space="preserve"><metadata
     id="metadata8"><rdf:RDF><cc:Work
         rdf:about=""><dc:format>image/svg+xml</dc:format><dc:type
           rdf:resource="http://purl.org/dc/dcmitype/StillImage" /></cc:Work></rdf:RDF></metadata><defs
     id="defs6" /><g
     transform="matrix(1.25,0,0,-1.25,0,42.125)"
     id="g10"><g
       transform="scale(0.1,0.1)"
       id="g12"><path
         d="m 4.82812,4.82422 161.055,0 0,281.02 -161.055,0 0,-281.02 z"
         inkscape:connector-curvature="0"
         id="path14"
         style="fill:#000000;fill-opacity:1;fill-rule:nonzero;stroke:none" /><path
         d="m 165.883,285.844 -161.05488,0 0,-281.01978 161.05488,0"
         inkscape:connector-curvature="0"
         id="path16"
         style="fill:none;stroke:#ffffff;stroke-width:4;stroke-linecap:butt;stroke-linejoin:miter;stroke-miterlimit:4;stroke-opacity:1;stroke-dasharray:none" /><path
         d="m 165.883,4.82422 49.152,49.14058 0,281.0192 -161.0662,0 -49.14068,-49.14 161.05488,0 0,-281.01978"
         inkscape:connector-curvature="0"
         id="path18"
         style="fill:#000000;fill-opacity:1;fill-rule:nonzero;stroke:none" /><path
         d="m 165.883,4.82422 49.152,49.14058 0,281.0192 -161.0662,0 -49.14068,-49.14 161.05488,0 0,-281.01978 z"
         inkscape:connector-curvature="0"
         id="path20"
         style="fill:none;stroke:#ffffff;stroke-width:4;stroke-linecap:butt;stroke-linejoin:miter;stroke-miterlimit:4;stroke-opacity:1;stroke-dasharray:none" /><path
         d="m 165.883,285.844 49.152,49.14"
         inkscape:connector-curvature="0"
         id="path22"
         style="fill:#000000;fill-opacity:1;fill-rule:nonzero;stroke:none" /><path
         d="m 165.883,285.844 49.152,49.14"
         inkscape:connector-curvature="0"
         id="path24"
         style="fill:none;stroke:#ffffff;stroke-width:4;stroke-linecap:butt;stroke-linejoin:miter;stroke-miterlimit:4;stroke-opacity:1;stroke-dasharray:none" /><path
         d="m 7.32031,190.586 157.17569,0"
         inkscape:connector-curvature="0"
         id="path26"
         style="fill:none;stroke:#ffffff;stroke-width:4;stroke-linecap:butt;stroke-linejoin:miter;stroke-miterlimit:4;stroke-opacity:1;stroke-dasharray:none" /><path
         d="m 7.32031,41.9531 157.17569,0"
         inkscape:connector-curvature="0"
         id="path28"
         style="fill:none;stroke:#ffffff;stroke-width:4;stroke-linecap:butt;stroke-linejoin:miter;stroke-miterlimit:4;stroke-opacity:1;stroke-dasharray:none" /><path
         d="m 49.4961,247.852 43.75,0"
         inkscape:connector-curvature="0"
         id="path30"
         style="fill:none;stroke:#ffffff;stroke-width:4;stroke-linecap:butt;stroke-linejoin:miter;stroke-miterlimit:4;stroke-opacity:1;stroke-dasharray:none" /><path
         d="m 31.9961,232.852 77.5,0 0,31.2539 -77.5,0 0,-31.2539 z"
         inkscape:connector-curvature="0"
         id="path32"
         style="fill:none;stroke:#ffffff;stroke-width:4;stroke-linecap:butt;stroke-linejoin:miter;stroke-miterlimit:4;stroke-opacity:1;stroke-dasharray:none" /><g
         transform="scale(10,10)"
         id="g34"><text
           transform="matrix(1,0,0,-1,8.825,6.39648)"
           id="text36"><tspan
             x="0 2.224"
             y="0"
             id="tspan38"
             style="font-size:8px;font-variant:normal;font-weight:bold;writing-mode:lr-tb;fill:#ffffff;fill-opacity:1;fill-rule:nonzero;stroke:none;font-family:Helvetica;-inkscape-font-specification:Helvetica-Bold">IP</tspan></text>
</g><path
         d="m 147.699,159.785 -107.6638,0 c -12.2657,0 -22.2032,-9.941 -22.2032,-22.207 0,-12.266 10.9063,-21.348 23.168,-21.348 l 18.0391,0 c 12.2539,0 21.2187,-11.152 21.2187,-23.4175 0,-12.2656 -9.9375,-22.1875 -22.1875,-22.1875 l -32.9414,0"
         inkscape:connector-curvature="0"
         id="path40"
         style="fill:none;stroke:#ffffff;stroke-width:11.55000019;stroke-linecap:butt;stroke-linejoin:miter;stroke-miterlimit:4;stroke-opacity:1;stroke-dasharray:none" /><path
         d="m 143.57,173.711 0,-27.91 16.805,13.398 -16.805,14.512"
         inkscape:connector-curvature="0"
         id="path42"
         style="fill:#ffffff;fill-opacity:1;fill-rule:nonzero;stroke:none" /><path
         d="m 143.57,173.711 0,-27.91 16.805,13.398 -16.805,14.512 z"
         inkscape:connector-curvature="0"
         id="path44"
         style="fill:none;stroke:#ffffff;stroke-width:1.10599995;stroke-linecap:butt;stroke-linejoin:miter;stroke-miterlimit:4;stroke-opacity:1;stroke-dasharray:none" /><path
         d="m 25.7539,56.8359 0,27.8907 L 8.94922,71.3477 25.7539,56.8359"
         inkscape:connector-curvature="0"
         id="path46"
         style="fill:#ffffff;fill-opacity:1;fill-rule:nonzero;stroke:none" /><path
         d="m 25.7539,56.8359 0,27.8907 L 8.94922,71.3477 25.7539,56.8359 z"
         inkscape:connector-curvature="0"
         id="path48"
         style="fill:none;stroke:#ffffff;stroke-width:1.10599995;stroke-linecap:butt;stroke-linejoin:miter;stroke-miterlimit:4;stroke-opacity:1;stroke-dasharray:none" /></g></g></svg>