<?xml version="1.0" encoding="UTF-8" standalone="no"?>
<!-- Created with Inkscape (http://www.inkscape.org/) -->

<svg
   xmlns:dc="http://purl.org/dc/elements/1.1/"
   xmlns:cc="http://creativecommons.org/ns#"
   xmlns:rdf="http://www.w3.org/1999/02/22-rdf-syntax-ns#"
   xmlns:svg="http://www.w3.org/2000/svg"
   xmlns="http://www.w3.org/2000/svg"
   xmlns:inkscape="http://www.inkscape.org/namespaces/inkscape"
   version="1.1"
   width="35"
   height="40"
   id="svg2"
   xml:space="preserve"><metadata
     id="metadata8"><rdf:RDF><cc:Work
         rdf:about=""><dc:format>image/svg+xml</dc:format><dc:type
           rdf:resource="http://purl.org/dc/dcmitype/StillImage" /></cc:Work></rdf:RDF></metadata><defs
     id="defs6"><clipPath
       id="clipPath18"><path
         d="M 0.06,31.741 27,31.741 27,0 0.06,0 l 0,31.741 z"
         inkscape:connector-curvature="0"
         id="path20" /></clipPath><clipPath
       id="clipPath24"><path
         d="M 0,0 28,0 28,32 0,32 0,0 z"
         inkscape:connector-curvature="0"
         id="path26" /></clipPath><clipPath
       id="clipPath34"><path
         d="M 0,0 28,0 28,32 0,32 0,0 z"
         inkscape:connector-curvature="0"
         id="path36" /></clipPath><clipPath
       id="clipPath44"><path
         d="M 0.06,31.741 27,31.741 27,0 0.06,0 l 0,31.741 z"
         inkscape:connector-curvature="0"
         id="path46" /></clipPath><clipPath
       id="clipPath50"><path
         d="M 0,0 28,0 28,32 0,32 0,0 z"
         inkscape:connector-curvature="0"
         id="path52" /></clipPath><clipPath
       id="clipPath60"><path
         d="M 0,0 28,0 28,32 0,32 0,0 z"
         inkscape:connector-curvature="0"
         id="path62" /></clipPath><clipPath
       id="clipPath70"><path
         d="M 0.06,31.741 27,31.741 27,0 0.06,0 l 0,31.741 z"
         inkscape:connector-curvature="0"
         id="path72" /></clipPath><clipPath
       id="clipPath76"><path
         d="M 0,0 28,0 28,32 0,32 0,0 z"
         inkscape:connector-curvature="0"
         id="path78" /></clipPath><clipPath
       id="clipPath86"><path
         d="M 0,0 28,0 28,32 0,32 0,0 z"
         inkscape:connector-curvature="0"
         id="path88" /></clipPath><clipPath
       id="clipPath96"><path
         d="M 0.06,31.741 27,31.741 27,0 0.06,0 l 0,31.741 z"
         inkscape:connector-curvature="0"
         id="path98" /></clipPath><clipPath
       id="clipPath102"><path
         d="M 0,0 28,0 28,32 0,32 0,0 z"
         inkscape:connector-curvature="0"
         id="path104" /></clipPath><clipPath
       id="clipPath118"><path
         d="M 0,0 28,0 28,32 0,32 0,0 z"
         inkscape:connector-curvature="0"
         id="path120" /></clipPath><clipPath
       id="clipPath128"><path
         d="M 0.06,31.741 27,31.741 27,0 0.06,0 l 0,31.741 z"
         inkscape:connector-curvature="0"
         id="path130" /></clipPath><clipPath
       id="clipPath134"><path
         d="M 0,0 28,0 28,32 0,32 0,0 z"
         inkscape:connector-curvature="0"
         id="path136" /></clipPath></defs><g
     transform="matrix(1.25,0,0,-1.25,0,40)"
     id="g10"><g
       id="g12" /><g
       id="g14"><g
         clip-path="url(#clipPath18)"
         id="g16"><g
           clip-path="url(#clipPath24)"
           id="g22"><path
             d="m 5.066,8.277 -0.723,0 c -3.614,0 -4.143,3.25 -4.143,3.25 l 0,-3.375 c 0,0 0.529,-3.25 4.143,-3.25 l 0.661,0"
             inkscape:connector-curvature="0"
             id="path28"
             style="fill:none;stroke:#231f20;stroke-width:0.40000001;stroke-linecap:butt;stroke-linejoin:miter;stroke-miterlimit:4;stroke-opacity:1;stroke-dasharray:none" /></g></g></g><g
       id="g30"><g
         clip-path="url(#clipPath34)"
         id="g32"><path
           d="m 4.296,28.749 16.163,0 0,-28.185 -16.163,0 0,28.185 z"
           inkscape:connector-curvature="0"
           id="path38"
           style="fill:#231f20;fill-opacity:1;fill-rule:nonzero;stroke:none" /></g></g><g
       id="g40"><g
         clip-path="url(#clipPath44)"
         id="g42"><g
           clip-path="url(#clipPath50)"
           id="g48"><path
             d="m 4.296,0.563 16.163,0 0,28.185 -16.163,0 0,-28.185 z"
             inkscape:connector-curvature="0"
             id="path54"
             style="fill:none;stroke:#ffffff;stroke-width:0.40000001;stroke-linecap:butt;stroke-linejoin:miter;stroke-miterlimit:4;stroke-opacity:1;stroke-dasharray:none" /></g></g></g><g
       id="g56"><g
         clip-path="url(#clipPath60)"
         id="g58"><path
           d="m 4.296,28.749 3.088,2.509 15.584,0 -2.51,-2.509 -16.162,0"
           inkscape:connector-curvature="0"
           id="path64"
           style="fill:#231f20;fill-opacity:1;fill-rule:nonzero;stroke:none" /></g></g><g
       id="g66"><g
         clip-path="url(#clipPath70)"
         id="g68"><g
           clip-path="url(#clipPath76)"
           id="g74"><path
             d="m 4.296,28.749 3.088,2.509 15.584,0 -2.51,-2.509 -16.162,0 z"
             inkscape:connector-curvature="0"
             id="path80"
             style="fill:none;stroke:#ffffff;stroke-width:0.40000001;stroke-linecap:butt;stroke-linejoin:miter;stroke-miterlimit:4;stroke-opacity:1;stroke-dasharray:none" /></g></g></g><g
       id="g82"><g
         clip-path="url(#clipPath86)"
         id="g84"><path
           d="m 20.458,0.563 2.51,3.089 0,27.606 -2.51,-2.509 0,-28.186"
           inkscape:connector-curvature="0"
           id="path90"
           style="fill:#231f20;fill-opacity:1;fill-rule:nonzero;stroke:none" /></g></g><g
       id="g92"><g
         clip-path="url(#clipPath96)"
         id="g94"><g
           clip-path="url(#clipPath102)"
           id="g100"><path
             d="m 20.458,0.563 2.51,3.089 0,27.606 -2.51,-2.509 0,-28.186 z"
             inkscape:connector-curvature="0"
             id="path106"
             style="fill:none;stroke:#ffffff;stroke-width:0.40000001;stroke-linecap:butt;stroke-linejoin:miter;stroke-miterlimit:4;stroke-opacity:1;stroke-dasharray:none" /><path
             d="m 22.754,4.973 3.607,0 0,3.384 -3.607,-0.009 m -17.813,15.625 -4.098,0 0,-3.384 3.607,0.009 0.429,0 m 17.5,0 0.482,0 c 3.614,0 4.189,-3.25 4.189,-3.25 l 0,3.375 c 0,0 -0.574,3.25 -4.189,3.25 l -0.795,0"
             inkscape:connector-curvature="0"
             id="path108"
             style="fill:none;stroke:#231f20;stroke-width:0.40000001;stroke-linecap:butt;stroke-linejoin:miter;stroke-miterlimit:4;stroke-opacity:1;stroke-dasharray:none" /><path
             d="m 27.05,20.911 0,-4 c -0.392,-4.75 -8.814,-4.5 -8.814,-4.5 l 0,-3.5 -5.5,5.5 5.5,5.5 0,-3.5 c 0,0 8.564,-0.25 8.814,4.5"
             inkscape:connector-curvature="0"
             id="path110"
             style="fill:#ffffff;fill-opacity:1;fill-rule:nonzero;stroke:none" /><path
             d="m 27.05,20.911 0,-4 c -0.392,-4.75 -8.814,-4.5 -8.814,-4.5 l 0,-3.5 -5.5,5.5 5.5,5.5 0,-3.5 c 0,0 8.564,-0.25 8.814,4.5"
             inkscape:connector-curvature="0"
             id="path112"
             style="fill:none;stroke:#231f20;stroke-width:0.40000001;stroke-linecap:butt;stroke-linejoin:miter;stroke-miterlimit:4;stroke-opacity:1;stroke-dasharray:none" /></g></g></g><g
       id="g114"><g
         clip-path="url(#clipPath118)"
         id="g116"><path
           d="m 0.218,7.964 0,4 c 0.25,4.75 6,4.5 6,4.5 l 0,3.5 5.5,-5.5 -5.5,-5.5 0,3.5 c 0,0 -5.75,0.25 -6,-4.5"
           inkscape:connector-curvature="0"
           id="path122"
           style="fill:#ffffff;fill-opacity:1;fill-rule:nonzero;stroke:none" /></g></g><g
       id="g124"><g
         clip-path="url(#clipPath128)"
         id="g126"><g
           clip-path="url(#clipPath134)"
           id="g132"><path
             d="m 0.218,7.964 0,4 c 0.25,4.75 6,4.5 6,4.5 l 0,3.5 5.5,-5.5 -5.5,-5.5 0,3.5 c 0,0 -5.75,0.25 -6,-4.5"
             inkscape:connector-curvature="0"
             id="path138"
             style="fill:none;stroke:#231f20;stroke-width:0.40000001;stroke-linecap:butt;stroke-linejoin:miter;stroke-miterlimit:4;stroke-opacity:1;stroke-dasharray:none" /></g></g></g></g></svg>