<?xml version="1.0" encoding="UTF-8" standalone="no"?>
<!-- Created with Inkscape (http://www.inkscape.org/) -->

<svg
   xmlns:dc="http://purl.org/dc/elements/1.1/"
   xmlns:cc="http://creativecommons.org/ns#"
   xmlns:rdf="http://www.w3.org/1999/02/22-rdf-syntax-ns#"
   xmlns:svg="http://www.w3.org/2000/svg"
   xmlns="http://www.w3.org/2000/svg"
   xmlns:inkscape="http://www.inkscape.org/namespaces/inkscape"
   version="1.1"
   width="80"
   height="42.5"
   id="svg2"
   xml:space="preserve"><metadata
     id="metadata8"><rdf:RDF><cc:Work
         rdf:about=""><dc:format>image/svg+xml</dc:format><dc:type
           rdf:resource="http://purl.org/dc/dcmitype/StillImage" /></cc:Work></rdf:RDF></metadata><defs
     id="defs6"><clipPath
       id="clipPath18"><path
         d="m 0.06,33.418 63.734,0 0,-33.418 -63.734,0 0,33.418 z"
         inkscape:connector-curvature="0"
         id="path20" /></clipPath><clipPath
       id="clipPath24"><path
         d="M 0,0 64,0 64,34 0,34 0,0 z"
         inkscape:connector-curvature="0"
         id="path26" /></clipPath><clipPath
       id="clipPath38"><path
         d="M 0,0 64,0 64,34 0,34 0,0 z"
         inkscape:connector-curvature="0"
         id="path40" /></clipPath><clipPath
       id="clipPath48"><path
         d="m 0.06,33.418 63.734,0 0,-33.418 -63.734,0 0,33.418 z"
         inkscape:connector-curvature="0"
         id="path50" /></clipPath><clipPath
       id="clipPath54"><path
         d="M 0,0 64,0 64,34 0,34 0,0 z"
         inkscape:connector-curvature="0"
         id="path56" /></clipPath><clipPath
       id="clipPath64"><path
         d="M 0,0 64,0 64,34 0,34 0,0 z"
         inkscape:connector-curvature="0"
         id="path66" /></clipPath><clipPath
       id="clipPath74"><path
         d="m 0.06,33.418 63.734,0 0,-33.418 -63.734,0 0,33.418 z"
         inkscape:connector-curvature="0"
         id="path76" /></clipPath><clipPath
       id="clipPath80"><path
         d="M 0,0 64,0 64,34 0,34 0,0 z"
         inkscape:connector-curvature="0"
         id="path82" /></clipPath><clipPath
       id="clipPath90"><path
         d="M 0,0 64,0 64,34 0,34 0,0 z"
         inkscape:connector-curvature="0"
         id="path92" /></clipPath><clipPath
       id="clipPath104"><path
         d="m 0.06,33.418 63.734,0 0,-33.418 -63.734,0 0,33.418 z"
         inkscape:connector-curvature="0"
         id="path106" /></clipPath><clipPath
       id="clipPath110"><path
         d="M 0,0 64,0 64,34 0,34 0,0 z"
         inkscape:connector-curvature="0"
         id="path112" /></clipPath><clipPath
       id="clipPath120"><path
         d="M 0,0 64,0 64,34 0,34 0,0 z"
         inkscape:connector-curvature="0"
         id="path122" /></clipPath><clipPath
       id="clipPath138"><path
         d="m 0.06,33.418 63.734,0 0,-33.418 -63.734,0 0,33.418 z"
         inkscape:connector-curvature="0"
         id="path140" /></clipPath><clipPath
       id="clipPath144"><path
         d="M 0,0 64,0 64,34 0,34 0,0 z"
         inkscape:connector-curvature="0"
         id="path146" /></clipPath><clipPath
       id="clipPath154"><path
         d="M 0,0 64,0 64,34 0,34 0,0 z"
         inkscape:connector-curvature="0"
         id="path156" /></clipPath><clipPath
       id="clipPath164"><path
         d="m 0.06,33.418 63.734,0 0,-33.418 -63.734,0 0,33.418 z"
         inkscape:connector-curvature="0"
         id="path166" /></clipPath><clipPath
       id="clipPath170"><path
         d="M 0,0 64,0 64,34 0,34 0,0 z"
         inkscape:connector-curvature="0"
         id="path172" /></clipPath><clipPath
       id="clipPath180"><path
         d="M 0,0 64,0 64,34 0,34 0,0 z"
         inkscape:connector-curvature="0"
         id="path182" /></clipPath></defs><g
     transform="matrix(1.25,0,0,-1.25,0,42.5)"
     id="g10"><g
       id="g12" /><g
       id="g14"><g
         clip-path="url(#clipPath18)"
         id="g16"><g
           clip-path="url(#clipPath24)"
           id="g22"><path
             d="M 44.16,6.434 C 44.259,4.876 43.55,3.142 42.125,1.849 40.63,0.487 38.724,-0.042 37.13,0.303 M 43.493,6.66 C 43.585,5.211 42.925,3.598 41.6,2.395 40.21,1.129 38.435,0.636 36.954,0.957 m 5.872,5.93 C 42.911,5.547 42.3,4.054 41.075,2.941 39.788,1.77 38.147,1.314 36.776,1.611 m 5.383,5.502 C 42.236,5.882 41.675,4.51 40.549,3.487 39.367,2.412 37.858,1.992 36.599,2.266 m 4.892,5.075 C 41.562,6.218 41.051,4.967 40.024,4.034 38.945,3.053 37.57,2.671 36.421,2.919 m 4.403,4.648 C 40.887,6.553 40.426,5.423 39.499,4.58 38.524,3.694 37.281,3.349 36.245,3.573 m 3.912,4.221 C 40.213,6.889 39.801,5.879 38.973,5.127 38.102,4.336 36.993,4.027 36.067,4.228 M 39.49,8.021 C 39.539,7.224 39.176,6.335 38.448,5.673 37.681,4.978 36.704,4.705 35.89,4.882"
             inkscape:connector-curvature="0"
             id="path28"
             style="fill:none;stroke:#100f0d;stroke-width:0.40000001;stroke-linecap:round;stroke-linejoin:round;stroke-miterlimit:1;stroke-opacity:1;stroke-dasharray:none" /><path
             d="m 0.2,13.747 0,1.329 13.424,4.92 6.115,-1.054 3.67,-0.713 2.518,-0.523 0.062,-1.687"
             inkscape:connector-curvature="0"
             id="path30"
             style="fill:#100f0d;fill-opacity:1;fill-rule:nonzero;stroke:none" /><path
             d="m 0.2,13.747 0,1.329 13.424,4.92 6.115,-1.054 3.67,-0.713 2.518,-0.523 0.062,-1.687"
             inkscape:connector-curvature="0"
             id="path32"
             style="fill:none;stroke:#ffffff;stroke-width:0.40000001;stroke-linecap:butt;stroke-linejoin:miter;stroke-miterlimit:4;stroke-opacity:1;stroke-dasharray:none" /></g></g></g><g
       id="g34"><g
         clip-path="url(#clipPath38)"
         id="g36"><path
           d="m 31.549,33.218 c -1.704,0 -3.087,-0.605 -3.087,-1.35 0,-0.746 1.383,-1.351 3.087,-1.351 1.704,0 3.087,0.605 3.087,1.351 0,0.745 -1.383,1.35 -3.087,1.35"
           inkscape:connector-curvature="0"
           id="path42"
           style="fill:#100f0d;fill-opacity:1;fill-rule:nonzero;stroke:none" /></g></g><g
       id="g44"><g
         clip-path="url(#clipPath48)"
         id="g46"><g
           clip-path="url(#clipPath54)"
           id="g52"><path
             d="m 31.549,33.218 c -1.704,0 -3.087,-0.605 -3.087,-1.35 0,-0.746 1.383,-1.351 3.087,-1.351 1.704,0 3.087,0.605 3.087,1.351 0,0.745 -1.383,1.35 -3.087,1.35 z"
             inkscape:connector-curvature="0"
             id="path58"
             style="fill:none;stroke:#ffffff;stroke-width:0.40000001;stroke-linecap:butt;stroke-linejoin:miter;stroke-miterlimit:4;stroke-opacity:1;stroke-dasharray:none" /></g></g></g><g
       id="g60"><g
         clip-path="url(#clipPath64)"
         id="g62"><path
           d="m 19.366,17.335 -5.778,0.922 -13.388,-4.51 11.697,-1.832 14.092,4.104 -4.052,0.69"
           inkscape:connector-curvature="0"
           id="path68"
           style="fill:#2b679e;fill-opacity:1;fill-rule:nonzero;stroke:none" /></g></g><g
       id="g70"><g
         clip-path="url(#clipPath74)"
         id="g72"><g
           clip-path="url(#clipPath80)"
           id="g78"><path
             d="m 19.366,17.335 -5.778,0.922 -13.388,-4.51 11.697,-1.832 14.092,4.104 -4.052,0.69"
             inkscape:connector-curvature="0"
             id="path84"
             style="fill:none;stroke:#ffffff;stroke-width:0.40000001;stroke-linecap:butt;stroke-linejoin:miter;stroke-miterlimit:4;stroke-opacity:1;stroke-dasharray:none" /></g></g></g><g
       id="g86"><g
         clip-path="url(#clipPath90)"
         id="g88"><path
           d="m 20.341,17.574 c -4.158,-1.057 -5.069,-2.087 -5.069,-2.087 1.405,-0.675 6.432,1.145 6.432,1.145 l 0.891,0.306 -2.254,0.636"
           inkscape:connector-curvature="0"
           id="path94"
           style="fill:#100f0d;fill-opacity:1;fill-rule:nonzero;stroke:none" /><path
           d="m 20.341,17.574 c -4.158,-1.057 -5.069,-2.087 -5.069,-2.087 1.405,-0.675 6.432,1.145 6.432,1.145 l 0.891,0.306 -2.254,0.636 z"
           inkscape:connector-curvature="0"
           id="path96"
           style="fill:none;stroke:#ffffff;stroke-width:0.40000001;stroke-linecap:butt;stroke-linejoin:miter;stroke-miterlimit:4;stroke-opacity:1;stroke-dasharray:none" /><path
           d="M 21.937,16.709 25.989,16.001 11.897,11.915 0.2,13.747 l 13.388,4.51 5.842,-0.899 c -3.347,-0.81 -4.118,-1.871 -4.118,-1.871 1.404,-0.675 5.798,0.948 5.798,0.948 l 0.017,0.027 4.065,1.24 -0.001,2.239 -5.303,-1.803 -0.059,-0.023 c 0,0 -0.246,-0.563 -0.246,-0.755"
           inkscape:connector-curvature="0"
           id="path98"
           style="fill:#100f0d;fill-opacity:1;fill-rule:nonzero;stroke:none" /></g></g><g
       id="g100"><g
         clip-path="url(#clipPath104)"
         id="g102"><g
           clip-path="url(#clipPath110)"
           id="g108"><path
             d="M 21.937,16.709 25.989,16.001 11.897,11.915 0.2,13.747 l 13.388,4.51 5.842,-0.899 c -3.347,-0.81 -4.118,-1.871 -4.118,-1.871 1.404,-0.675 5.798,0.948 5.798,0.948 l 0.017,0.027 4.065,1.24 -0.001,2.239 -5.303,-1.803 -0.059,-0.023 c 0,0 -0.246,-0.563 -0.246,-0.755"
             inkscape:connector-curvature="0"
             id="path114"
             style="fill:none;stroke:#ffffff;stroke-width:0.40000001;stroke-linecap:butt;stroke-linejoin:miter;stroke-miterlimit:4;stroke-opacity:1;stroke-dasharray:none" /></g></g></g><g
       id="g116"><g
         clip-path="url(#clipPath120)"
         id="g118"><path
           d="m 19.874,17.341 c -0.042,0.008 -0.086,-0.039 -0.098,-0.106 -0.011,-0.066 0.014,-0.126 0.056,-0.132 0.042,-0.008 0.085,0.039 0.097,0.105 0.011,0.066 -0.013,0.126 -0.055,0.133"
           inkscape:connector-curvature="0"
           id="path124"
           style="fill:#2b679e;fill-opacity:1;fill-rule:nonzero;stroke:none" /><path
           d="m 19.874,17.341 c -0.042,0.008 -0.086,-0.039 -0.098,-0.106 -0.011,-0.066 0.014,-0.126 0.056,-0.132 0.042,-0.008 0.085,0.039 0.097,0.105 0.011,0.066 -0.013,0.126 -0.055,0.133 z"
           inkscape:connector-curvature="0"
           id="path126"
           style="fill:none;stroke:#ffffff;stroke-width:0.40000001;stroke-linecap:butt;stroke-linejoin:miter;stroke-miterlimit:4;stroke-opacity:1;stroke-dasharray:none" /><path
           d="m 37.947,12.226 0,16.629 c 0,1.541 -2.856,2.791 -6.378,2.791 -3.523,0 -6.379,-1.25 -6.379,-2.791 l 0,-16.771"
           inkscape:connector-curvature="0"
           id="path128"
           style="fill:#100f0d;fill-opacity:1;fill-rule:nonzero;stroke:none" /><path
           d="m 37.947,12.226 0,16.629 c 0,1.541 -2.856,2.791 -6.378,2.791 -3.523,0 -6.379,-1.25 -6.379,-2.791 l 0,-16.771"
           inkscape:connector-curvature="0"
           id="path130"
           style="fill:none;stroke:#ffffff;stroke-width:0.40000001;stroke-linecap:butt;stroke-linejoin:miter;stroke-miterlimit:4;stroke-opacity:1;stroke-dasharray:none" /><path
           d="m 37.214,25.374 0,1.518 14.024,4.963 12.332,-2.854 0.023,-1.795"
           inkscape:connector-curvature="0"
           id="path132"
           style="fill:#100f0d;fill-opacity:1;fill-rule:nonzero;stroke:none" /></g></g><g
       id="g134"><g
         clip-path="url(#clipPath138)"
         id="g136"><g
           clip-path="url(#clipPath144)"
           id="g142"><path
             d="m 37.214,25.374 0,1.518 14.024,4.963 12.332,-2.854 0.023,-1.795"
             inkscape:connector-curvature="0"
             id="path148"
             style="fill:none;stroke:#ffffff;stroke-width:0.40000001;stroke-linecap:butt;stroke-linejoin:miter;stroke-miterlimit:4;stroke-opacity:1;stroke-dasharray:none" /></g></g></g><g
       id="g150"><g
         clip-path="url(#clipPath154)"
         id="g152"><path
           d="m 41.726,24.736 -4.512,0.638 14.024,4.65 12.332,-2.853 -14.694,-4.123 -3.375,0.577"
           inkscape:connector-curvature="0"
           id="path158"
           style="fill:#100f0d;fill-opacity:1;fill-rule:nonzero;stroke:none" /></g></g><g
       id="g160"><g
         clip-path="url(#clipPath164)"
         id="g162"><g
           clip-path="url(#clipPath170)"
           id="g168"><path
             d="m 41.726,24.736 -4.512,0.638 14.024,4.65 12.332,-2.853 -14.694,-4.123 -3.375,0.577"
             inkscape:connector-curvature="0"
             id="path174"
             style="fill:none;stroke:#ffffff;stroke-width:0.40000001;stroke-linecap:butt;stroke-linejoin:miter;stroke-miterlimit:4;stroke-opacity:1;stroke-dasharray:none" /></g></g></g><g
       id="g176"><g
         clip-path="url(#clipPath180)"
         id="g178"><path
           d="m 45.572,23.593 c 3.099,0.775 4.228,2.325 4.228,2.325 -4.677,0.139 -8.025,-1.206 -8.025,-1.206"
           inkscape:connector-curvature="0"
           id="path184"
           style="fill:#100f0d;fill-opacity:1;fill-rule:nonzero;stroke:none" /><path
           d="m 45.572,23.593 c 3.099,0.775 4.228,2.325 4.228,2.325 -4.677,0.139 -8.025,-1.206 -8.025,-1.206"
           inkscape:connector-curvature="0"
           id="path186"
           style="fill:none;stroke:#ffffff;stroke-width:0.40000001;stroke-linecap:butt;stroke-linejoin:miter;stroke-miterlimit:4;stroke-opacity:1;stroke-dasharray:none" /><path
           d="M 45.818,23.672 35.5,20.665 c -1.481,0.07 -1.29,1.269 -1.29,1.269 -0.07,0.774 1.106,1.111 1.106,1.111 l 6.74,1.754"
           inkscape:connector-curvature="0"
           id="path188"
           style="fill:#100f0d;fill-opacity:1;fill-rule:nonzero;stroke:none" /><path
           d="M 45.818,23.672 35.5,20.665 c -1.481,0.07 -1.29,1.269 -1.29,1.269 -0.07,0.774 1.106,1.111 1.106,1.111 l 6.74,1.754"
           inkscape:connector-curvature="0"
           id="path190"
           style="fill:none;stroke:#ffffff;stroke-width:0.40000001;stroke-linecap:butt;stroke-linejoin:miter;stroke-miterlimit:4;stroke-opacity:1;stroke-dasharray:none" /><path
           d="m 42.216,24.814 c -0.086,0 -0.154,-0.035 -0.154,-0.078 0,-0.042 0.068,-0.077 0.154,-0.077 0.086,0 0.155,0.035 0.155,0.077 0,0.043 -0.069,0.078 -0.155,0.078"
           inkscape:connector-curvature="0"
           id="path192"
           style="fill:#2b679e;fill-opacity:1;fill-rule:nonzero;stroke:none" /><path
           d="m 42.216,24.814 c -0.086,0 -0.154,-0.035 -0.154,-0.078 0,-0.042 0.068,-0.077 0.154,-0.077 0.086,0 0.155,0.035 0.155,0.077 0,0.043 -0.069,0.078 -0.155,0.078 z"
           inkscape:connector-curvature="0"
           id="path194"
           style="fill:none;stroke:#ffffff;stroke-width:0.40000001;stroke-linecap:butt;stroke-linejoin:miter;stroke-miterlimit:4;stroke-opacity:1;stroke-dasharray:none" /><path
           d="m 24.36,7.64 c 0,1.559 3.252,2.824 7.265,2.824 4.009,0 7.261,-1.265 7.261,-2.824 l 0,4.136 c 0,1.561 -3.252,2.825 -7.261,2.825 -4.013,0 -7.265,-1.264 -7.265,-2.825 l 0,-4.136"
           inkscape:connector-curvature="0"
           id="path196"
           style="fill:#100f0d;fill-opacity:1;fill-rule:nonzero;stroke:none" /><path
           d="m 24.36,7.64 c 0,1.559 3.252,2.824 7.265,2.824 4.009,0 7.261,-1.265 7.261,-2.824 l 0,4.136 c 0,1.561 -3.252,2.825 -7.261,2.825 -4.013,0 -7.265,-1.264 -7.265,-2.825 l 0,-4.136 z"
           inkscape:connector-curvature="0"
           id="path198"
           style="fill:none;stroke:#ffffff;stroke-width:0.40000001;stroke-linecap:butt;stroke-linejoin:miter;stroke-miterlimit:4;stroke-opacity:1;stroke-dasharray:none" /><path
           d="m 31.625,10.464 c -4.013,0 -7.265,-1.265 -7.265,-2.824 0,-1.561 3.252,-2.825 7.265,-2.825 4.009,0 7.261,1.264 7.261,2.825 0,1.559 -3.252,2.824 -7.261,2.824"
           inkscape:connector-curvature="0"
           id="path200"
           style="fill:#100f0d;fill-opacity:1;fill-rule:nonzero;stroke:none" /><path
           d="m 31.625,10.464 c -4.013,0 -7.265,-1.265 -7.265,-2.824 0,-1.561 3.252,-2.825 7.265,-2.825 4.009,0 7.261,1.264 7.261,2.825 0,1.559 -3.252,2.824 -7.261,2.824 z"
           inkscape:connector-curvature="0"
           id="path202"
           style="fill:none;stroke:#ffffff;stroke-width:0.40000001;stroke-linecap:butt;stroke-linejoin:miter;stroke-miterlimit:4;stroke-opacity:1;stroke-dasharray:none" /><path
           d="m 33.283,6.535 -0.599,0.9 2.267,0.524 L 34.455,7.546 37.958,6.947 37.08,6.288 33.699,6.861 33.283,6.535"
           inkscape:connector-curvature="0"
           id="path204"
           style="fill:#ffffff;fill-opacity:1;fill-rule:nonzero;stroke:none" /><path
           d="M 30.093,8.716 30.501,7.789 28.456,7.38 28.812,7.698 25.403,8.28 26.22,8.935 29.608,8.298 30.093,8.716"
           inkscape:connector-curvature="0"
           id="path206"
           style="fill:#ffffff;fill-opacity:1;fill-rule:nonzero;stroke:none" /><path
           d="M 31.212,6.044 28.919,5.417 28.892,6.399 29.464,6.29 30.583,7.218 31.65,7.062 30.497,6.153 31.212,6.044"
           inkscape:connector-curvature="0"
           id="path208"
           style="fill:#ffffff;fill-opacity:1;fill-rule:nonzero;stroke:none" /><path
           d="m 32.192,9.562 2.181,0.409 0.082,-1.009 -0.627,0.137 -1.201,-1.026 -1.064,0.18 1.283,1.117 -0.654,0.192"
           inkscape:connector-curvature="0"
           id="path210"
           style="fill:#ffffff;fill-opacity:1;fill-rule:nonzero;stroke:none" /></g></g></g></svg>