<?xml version="1.0" encoding="UTF-8" standalone="no"?>
<!-- Created with Inkscape (http://www.inkscape.org/) -->

<svg
   xmlns:dc="http://purl.org/dc/elements/1.1/"
   xmlns:cc="http://creativecommons.org/ns#"
   xmlns:rdf="http://www.w3.org/1999/02/22-rdf-syntax-ns#"
   xmlns:svg="http://www.w3.org/2000/svg"
   xmlns="http://www.w3.org/2000/svg"
   xmlns:inkscape="http://www.inkscape.org/namespaces/inkscape"
   version="1.1"
   width="47.875"
   height="31.862499"
   id="svg2"
   xml:space="preserve"><metadata
     id="metadata8"><rdf:RDF><cc:Work
         rdf:about=""><dc:format>image/svg+xml</dc:format><dc:type
           rdf:resource="http://purl.org/dc/dcmitype/StillImage" /></cc:Work></rdf:RDF></metadata><defs
     id="defs6" /><g
     transform="matrix(1.25,0,0,-1.25,0,31.8625)"
     id="g10"><g
       transform="scale(0.1,0.1)"
       id="g12"><path
         d="m 5.65234,6.47656 333.16,0 0,194.512 -333.16,0 0,-194.512 z"
         inkscape:connector-curvature="0"
         id="path14"
         style="fill:#000000;fill-opacity:1;fill-rule:nonzero;stroke:none" /><path
         d="m 5.65234,6.47656 333.16,0 0,194.512 -333.16,0 0,-194.512 z"
         inkscape:connector-curvature="0"
         id="path16"
         style="fill:none;stroke:#ffffff;stroke-width:4;stroke-linecap:butt;stroke-linejoin:miter;stroke-miterlimit:4;stroke-opacity:1;stroke-dasharray:none" /><path
         d="m 378.715,64.8359 -39.903,-58.35934 0,194.51144 39.903,48.379 0,-184.5311"
         inkscape:connector-curvature="0"
         id="path18"
         style="fill:#000000;fill-opacity:1;fill-rule:nonzero;stroke:none" /><path
         d="m 378.715,64.8359 -39.903,-58.35934 0,194.51144 39.903,48.379 0,-184.5311 z"
         inkscape:connector-curvature="0"
         id="path20"
         style="fill:none;stroke:#ffffff;stroke-width:4;stroke-linecap:butt;stroke-linejoin:miter;stroke-miterlimit:4;stroke-opacity:1;stroke-dasharray:none" /><path
         d="m 65.5078,249.367 313.2072,0 -39.903,-48.379 -333.15966,0 59.85546,48.379"
         inkscape:connector-curvature="0"
         id="path22"
         style="fill:#000000;fill-opacity:1;fill-rule:nonzero;stroke:none" /><path
         d="m 65.5078,249.367 313.2072,0 -39.903,-48.379 -333.15966,0 59.85546,48.379 z"
         inkscape:connector-curvature="0"
         id="path24"
         style="fill:none;stroke:#ffffff;stroke-width:4;stroke-linecap:butt;stroke-linejoin:miter;stroke-miterlimit:4;stroke-opacity:1;stroke-dasharray:none" /><g
         transform="scale(10,10)"
         id="g26"><text
           transform="matrix(1,0,0,-1,10.0867,12.4746)"
           id="text28"><tspan
             x="0 5.0539999 9.7229996"
             y="0"
             id="tspan30"
             style="font-size:7px;font-variant:normal;font-weight:bold;writing-mode:lr-tb;fill:#ffffff;fill-opacity:1;fill-rule:nonzero;stroke:none;font-family:Helvetica;-inkscape-font-specification:Helvetica-Bold">UPS</tspan></text>
</g><path
         d="m 170.23,64.7188 c 0.04,0.0195 43.243,2.371 43.243,2.371 0,0 -53.125,20.2305 -63.145,23.7735 0.664,0.2812 48.418,0.875 48.418,0.875 L 54.0078,131.695 149.164,96.7383 c -0.476,-0.211 -35,-2.5 -35,-2.5 0,0 35.148,-17.2031 44.934,-20.6641 -1.465,-0.6094 -32.016,-9.3359 -32.016,-9.3359 L 298.871,16.4375 170.23,64.7188"
         inkscape:connector-curvature="0"
         id="path32"
         style="fill:#ffffff;fill-opacity:1;fill-rule:nonzero;stroke:none" /></g></g></svg>