<?xml version="1.0" encoding="UTF-8" standalone="no"?>
<!-- Created with Inkscape (http://www.inkscape.org/) -->

<svg
   xmlns:dc="http://purl.org/dc/elements/1.1/"
   xmlns:cc="http://creativecommons.org/ns#"
   xmlns:rdf="http://www.w3.org/1999/02/22-rdf-syntax-ns#"
   xmlns:svg="http://www.w3.org/2000/svg"
   xmlns="http://www.w3.org/2000/svg"
   xmlns:inkscape="http://www.inkscape.org/namespaces/inkscape"
   version="1.1"
   width="33.462502"
   height="33.787498"
   id="svg2"
   xml:space="preserve"><metadata
     id="metadata8"><rdf:RDF><cc:Work
         rdf:about=""><dc:format>image/svg+xml</dc:format><dc:type
           rdf:resource="http://purl.org/dc/dcmitype/StillImage" /></cc:Work></rdf:RDF></metadata><defs
     id="defs6" /><g
     transform="matrix(1.25,0,0,-1.25,0,33.7875)"
     id="g10"><g
       transform="scale(0.1,0.1)"
       id="g12"><path
         d="m 5.46484,4.74609 215.996,0 0,219.746 -215.996,0 0,-219.746 z"
         inkscape:connector-curvature="0"
         id="path14"
         style="fill:#000000;fill-opacity:1;fill-rule:nonzero;stroke:none" /><path
         d="m 5.46484,4.74609 215.996,0 0,219.746 -215.996,0 0,-219.746 z"
         inkscape:connector-curvature="0"
         id="path16"
         style="fill:none;stroke:#ffffff;stroke-width:4;stroke-linecap:butt;stroke-linejoin:miter;stroke-miterlimit:4;stroke-opacity:1;stroke-dasharray:none" /><path
         d="m 113.77,68.3086 c 25.668,0 46.48,20.8086 46.48,46.4764 0,25.668 -20.812,46.477 -46.48,46.477 -25.6645,0 -46.4731,-20.809 -46.4731,-46.477 0,-25.6678 20.8086,-46.4764 46.4731,-46.4764 z"
         inkscape:connector-curvature="0"
         id="path18"
         style="fill:none;stroke:#ffffff;stroke-width:7;stroke-linecap:butt;stroke-linejoin:miter;stroke-miterlimit:4;stroke-opacity:1;stroke-dasharray:none" /><path
         d="m 113.77,161.262 80.726,0"
         inkscape:connector-curvature="0"
         id="path20"
         style="fill:none;stroke:#ffffff;stroke-width:7;stroke-linecap:butt;stroke-linejoin:miter;stroke-miterlimit:4;stroke-opacity:1;stroke-dasharray:none" /><path
         d="m 180.551,185.883 0,-48.071 28.961,23.09 -28.961,24.981"
         inkscape:connector-curvature="0"
         id="path22"
         style="fill:#ffffff;fill-opacity:1;fill-rule:nonzero;stroke:none" /><path
         d="m 180.551,185.883 0,-48.071 28.961,23.09 -28.961,24.981 z"
         inkscape:connector-curvature="0"
         id="path24"
         style="fill:none;stroke:#ffffff;stroke-width:2;stroke-linecap:butt;stroke-linejoin:miter;stroke-miterlimit:4;stroke-opacity:1;stroke-dasharray:none" /><path
         d="m 67.3516,114.457 0,80.723"
         inkscape:connector-curvature="0"
         id="path26"
         style="fill:none;stroke:#ffffff;stroke-width:7;stroke-linecap:butt;stroke-linejoin:miter;stroke-miterlimit:4;stroke-opacity:1;stroke-dasharray:none" /><path
         d="m 43.3555,181.676 48.0703,0 -23.0899,28.961 -24.9804,-28.961"
         inkscape:connector-curvature="0"
         id="path28"
         style="fill:#ffffff;fill-opacity:1;fill-rule:nonzero;stroke:none" /><path
         d="m 43.3555,181.676 48.0703,0 -23.0899,28.961 -24.9804,-28.961 z"
         inkscape:connector-curvature="0"
         id="path30"
         style="fill:none;stroke:#ffffff;stroke-width:2;stroke-linecap:butt;stroke-linejoin:miter;stroke-miterlimit:4;stroke-opacity:1;stroke-dasharray:none" /><path
         d="m 160.344,115.051 0,-80.7268"
         inkscape:connector-curvature="0"
         id="path32"
         style="fill:none;stroke:#ffffff;stroke-width:7;stroke-linecap:butt;stroke-linejoin:miter;stroke-miterlimit:4;stroke-opacity:1;stroke-dasharray:none" /><path
         d="m 184.922,48.9492 -48.07,0 23.312,-28.9531 24.758,28.9531"
         inkscape:connector-curvature="0"
         id="path34"
         style="fill:#ffffff;fill-opacity:1;fill-rule:nonzero;stroke:none" /><path
         d="m 184.922,48.9492 -48.07,0 23.312,-28.9531 24.758,28.9531 z"
         inkscape:connector-curvature="0"
         id="path36"
         style="fill:none;stroke:#ffffff;stroke-width:2;stroke-linecap:butt;stroke-linejoin:miter;stroke-miterlimit:4;stroke-opacity:1;stroke-dasharray:none" /><path
         d="m 114.918,68.3633 -80.7227,0"
         inkscape:connector-curvature="0"
         id="path38"
         style="fill:none;stroke:#ffffff;stroke-width:7;stroke-linecap:butt;stroke-linejoin:miter;stroke-miterlimit:4;stroke-opacity:1;stroke-dasharray:none" /><path
         d="m 47.0508,44.5195 0,48.0743 -28.961,-23.0899 28.961,-24.9844"
         inkscape:connector-curvature="0"
         id="path40"
         style="fill:#ffffff;fill-opacity:1;fill-rule:nonzero;stroke:none" /><path
         d="m 47.0508,44.5195 0,48.0743 -28.961,-23.0899 28.961,-24.9844 z"
         inkscape:connector-curvature="0"
         id="path42"
         style="fill:none;stroke:#ffffff;stroke-width:2;stroke-linecap:butt;stroke-linejoin:miter;stroke-miterlimit:4;stroke-opacity:1;stroke-dasharray:none" /><path
         d="m 220.715,224.742 -215.00016,0 54.49996,43.496 205.5002,0 0,-218.3708 -44.504,-45.00001 0,218.62481 -0.496,1.25"
         inkscape:connector-curvature="0"
         id="path44"
         style="fill:#000000;fill-opacity:1;fill-rule:nonzero;stroke:none" /><path
         d="m 220.715,224.742 -215.00016,0 54.49996,43.496 205.5002,0 0,-218.3708 -44.504,-45.00001 0,218.62481 -0.496,1.25 z"
         inkscape:connector-curvature="0"
         id="path46"
         style="fill:none;stroke:#ffffff;stroke-width:4;stroke-linecap:butt;stroke-linejoin:miter;stroke-miterlimit:4;stroke-opacity:1;stroke-dasharray:none" /><path
         d="m 221.098,225.102 45,43.75"
         inkscape:connector-curvature="0"
         id="path48"
         style="fill:none;stroke:#ffffff;stroke-width:4;stroke-linecap:butt;stroke-linejoin:miter;stroke-miterlimit:4;stroke-opacity:1;stroke-dasharray:none" /><g
         transform="scale(10,10)"
         id="g50"><text
           transform="matrix(1,0,0,-1,8.28555,7.9125)"
           id="text52"><tspan
             x="0"
             y="0"
             id="tspan54"
             style="font-size:9px;font-variant:normal;font-weight:bold;writing-mode:lr-tb;fill:#ffffff;fill-opacity:1;fill-rule:nonzero;stroke:none;font-family:Helvetica;-inkscape-font-specification:Helvetica-Bold">V</tspan></text>
</g></g></g></svg>