<?xml version="1.0" encoding="UTF-8" standalone="no"?>
<!-- Created with Inkscape (http://www.inkscape.org/) -->

<svg
   xmlns:dc="http://purl.org/dc/elements/1.1/"
   xmlns:cc="http://creativecommons.org/ns#"
   xmlns:rdf="http://www.w3.org/1999/02/22-rdf-syntax-ns#"
   xmlns:svg="http://www.w3.org/2000/svg"
   xmlns="http://www.w3.org/2000/svg"
   xmlns:inkscape="http://www.inkscape.org/namespaces/inkscape"
   version="1.1"
   width="40"
   height="52.5"
   id="svg2"
   xml:space="preserve"><metadata
     id="metadata8"><rdf:RDF><cc:Work
         rdf:about=""><dc:format>image/svg+xml</dc:format><dc:type
           rdf:resource="http://purl.org/dc/dcmitype/StillImage" /></cc:Work></rdf:RDF></metadata><defs
     id="defs6"><clipPath
       id="clipPath18"><path
         d="M 0,0 32,0 32,42 0,42 0,0 z"
         inkscape:connector-curvature="0"
         id="path20" /></clipPath><clipPath
       id="clipPath28"><path
         d="m 0.06,41.958 31.288,0 0,-41.898 -31.288,0 0,41.898 z"
         inkscape:connector-curvature="0"
         id="path30" /></clipPath><clipPath
       id="clipPath34"><path
         d="M 0,0 32,0 32,42 0,42 0,0 z"
         inkscape:connector-curvature="0"
         id="path36" /></clipPath><clipPath
       id="clipPath44"><path
         d="M 0,0 32,0 32,42 0,42 0,0 z"
         inkscape:connector-curvature="0"
         id="path46" /></clipPath><clipPath
       id="clipPath54"><path
         d="m 0.06,41.958 31.288,0 0,-41.898 -31.288,0 0,41.898 z"
         inkscape:connector-curvature="0"
         id="path56" /></clipPath><clipPath
       id="clipPath60"><path
         d="M 0,0 32,0 32,42 0,42 0,0 z"
         inkscape:connector-curvature="0"
         id="path62" /></clipPath><clipPath
       id="clipPath70"><path
         d="M 0,0 32,0 32,42 0,42 0,0 z"
         inkscape:connector-curvature="0"
         id="path72" /></clipPath><clipPath
       id="clipPath80"><path
         d="m 0.06,41.958 31.288,0 0,-41.898 -31.288,0 0,41.898 z"
         inkscape:connector-curvature="0"
         id="path82" /></clipPath><clipPath
       id="clipPath86"><path
         d="M 0,0 32,0 32,42 0,42 0,0 z"
         inkscape:connector-curvature="0"
         id="path88" /></clipPath><clipPath
       id="clipPath96"><path
         d="M 0,0 32,0 32,42 0,42 0,0 z"
         inkscape:connector-curvature="0"
         id="path98" /></clipPath><clipPath
       id="clipPath106"><path
         d="m 0.06,41.958 31.288,0 0,-41.898 -31.288,0 0,41.898 z"
         inkscape:connector-curvature="0"
         id="path108" /></clipPath><clipPath
       id="clipPath112"><path
         d="M 0,0 32,0 32,42 0,42 0,0 z"
         inkscape:connector-curvature="0"
         id="path114" /></clipPath><clipPath
       id="clipPath122"><path
         d="M 0,0 32,0 32,42 0,42 0,0 z"
         inkscape:connector-curvature="0"
         id="path124" /></clipPath><clipPath
       id="clipPath132"><path
         d="m 0.06,41.958 31.288,0 0,-41.898 -31.288,0 0,41.898 z"
         inkscape:connector-curvature="0"
         id="path134" /></clipPath><clipPath
       id="clipPath138"><path
         d="M 0,0 32,0 32,42 0,42 0,0 z"
         inkscape:connector-curvature="0"
         id="path140" /></clipPath><clipPath
       id="clipPath148"><path
         d="M 0,0 32,0 32,42 0,42 0,0 z"
         inkscape:connector-curvature="0"
         id="path150" /></clipPath><clipPath
       id="clipPath158"><path
         d="m 0.06,41.958 31.288,0 0,-41.898 -31.288,0 0,41.898 z"
         inkscape:connector-curvature="0"
         id="path160" /></clipPath><clipPath
       id="clipPath164"><path
         d="M 0,0 32,0 32,42 0,42 0,0 z"
         inkscape:connector-curvature="0"
         id="path166" /></clipPath><clipPath
       id="clipPath174"><path
         d="M 0,0 32,0 32,42 0,42 0,0 z"
         inkscape:connector-curvature="0"
         id="path176" /></clipPath></defs><g
     transform="matrix(1.25,0,0,-1.25,0,52.5)"
     id="g10"><g
       id="g12" /><g
       id="g14"><g
         clip-path="url(#clipPath18)"
         id="g16"><path
           d="m 0.646,27.282 26.826,0 0,-26.802 -26.826,0 0,26.802 z"
           inkscape:connector-curvature="0"
           id="path22"
           style="fill:#231f20;fill-opacity:1;fill-rule:nonzero;stroke:none" /></g></g><g
       id="g24"><g
         clip-path="url(#clipPath28)"
         id="g26"><g
           clip-path="url(#clipPath34)"
           id="g32"><path
             d="m 0.646,27.282 26.826,0 0,-26.802 -26.826,0 0,26.802 z"
             inkscape:connector-curvature="0"
             id="path38"
             style="fill:none;stroke:#ffffff;stroke-width:0.40000001;stroke-linecap:butt;stroke-linejoin:miter;stroke-miterlimit:4;stroke-opacity:1;stroke-dasharray:none" /></g></g></g><g
       id="g40"><g
         clip-path="url(#clipPath44)"
         id="g42"><path
           d="m 30.861,3.835 0,26.802 -3.388,-3.355 0,-26.802 3.388,3.355"
           inkscape:connector-curvature="0"
           id="path48"
           style="fill:#231f20;fill-opacity:1;fill-rule:nonzero;stroke:none" /></g></g><g
       id="g50"><g
         clip-path="url(#clipPath54)"
         id="g52"><g
           clip-path="url(#clipPath60)"
           id="g58"><path
             d="m 30.861,3.835 0,26.802 -3.388,-3.355 0,-26.802 3.388,3.355 z"
             inkscape:connector-curvature="0"
             id="path64"
             style="fill:none;stroke:#ffffff;stroke-width:0.40000001;stroke-linecap:butt;stroke-linejoin:miter;stroke-miterlimit:4;stroke-opacity:1;stroke-dasharray:none" /></g></g></g><g
       id="g66"><g
         clip-path="url(#clipPath70)"
         id="g68"><path
           d="m 5.551,41.479 -4.905,-3.356 26.827,0 3.388,3.356 -25.31,0"
           inkscape:connector-curvature="0"
           id="path74"
           style="fill:#231f20;fill-opacity:1;fill-rule:nonzero;stroke:none" /></g></g><g
       id="g76"><g
         clip-path="url(#clipPath80)"
         id="g78"><g
           clip-path="url(#clipPath86)"
           id="g84"><path
             d="m 5.551,41.479 -4.905,-3.356 26.827,0 3.388,3.356 -25.31,0 z"
             inkscape:connector-curvature="0"
             id="path90"
             style="fill:none;stroke:#ffffff;stroke-width:0.40000001;stroke-linecap:butt;stroke-linejoin:miter;stroke-miterlimit:4;stroke-opacity:1;stroke-dasharray:none" /></g></g></g><g
       id="g92"><g
         clip-path="url(#clipPath96)"
         id="g94"><path
           d="m 0.646,38.123 26.826,0 0,-10.841 -26.826,0 0,10.841 z"
           inkscape:connector-curvature="0"
           id="path100"
           style="fill:#231f20;fill-opacity:1;fill-rule:nonzero;stroke:none" /></g></g><g
       id="g102"><g
         clip-path="url(#clipPath106)"
         id="g104"><g
           clip-path="url(#clipPath112)"
           id="g110"><path
             d="m 0.646,38.123 26.826,0 0,-10.841 -26.826,0 0,10.841 z"
             inkscape:connector-curvature="0"
             id="path116"
             style="fill:none;stroke:#ffffff;stroke-width:0.40000001;stroke-linecap:butt;stroke-linejoin:miter;stroke-miterlimit:4;stroke-opacity:1;stroke-dasharray:none" /></g></g></g><g
       id="g118"><g
         clip-path="url(#clipPath122)"
         id="g120"><path
           d="m 30.861,30.637 0,10.842 -3.388,-3.356 0,-10.841 3.388,3.355"
           inkscape:connector-curvature="0"
           id="path126"
           style="fill:#231f20;fill-opacity:1;fill-rule:nonzero;stroke:none" /></g></g><g
       id="g128"><g
         clip-path="url(#clipPath132)"
         id="g130"><g
           clip-path="url(#clipPath138)"
           id="g136"><path
             d="m 30.861,30.637 0,10.842 -3.388,-3.356 0,-10.841 3.388,3.355 z"
             inkscape:connector-curvature="0"
             id="path142"
             style="fill:none;stroke:#ffffff;stroke-width:0.40000001;stroke-linecap:butt;stroke-linejoin:miter;stroke-miterlimit:4;stroke-opacity:1;stroke-dasharray:none" /></g></g></g><g
       id="g144"><g
         clip-path="url(#clipPath148)"
         id="g146"><path
           d="m 27.473,27.282 3.388,3.355"
           inkscape:connector-curvature="0"
           id="path152"
           style="fill:#231f20;fill-opacity:1;fill-rule:nonzero;stroke:none" /></g></g><g
       id="g154"><g
         clip-path="url(#clipPath158)"
         id="g156"><g
           clip-path="url(#clipPath164)"
           id="g162"><path
             d="m 27.473,27.282 3.388,3.355"
             inkscape:connector-curvature="0"
             id="path168"
             style="fill:none;stroke:#ffffff;stroke-width:0.40000001;stroke-linecap:butt;stroke-linejoin:miter;stroke-miterlimit:4;stroke-opacity:1;stroke-dasharray:none" /></g></g></g><g
       id="g170"><g
         clip-path="url(#clipPath174)"
         id="g172"><path
           d="m 5.023,36.669 4.326,0 0,-2.237 -4.326,0 0,2.237 z"
           inkscape:connector-curvature="0"
           id="path178"
           style="fill:#ffffff;fill-opacity:1;fill-rule:nonzero;stroke:none" /><path
           d="m 19.24,36.669 4.326,0 0,-2.237 -4.326,0 0,2.237 z"
           inkscape:connector-curvature="0"
           id="path180"
           style="fill:#ffffff;fill-opacity:1;fill-rule:nonzero;stroke:none" /><path
           d="m 5.023,31.057 4.326,0 0,-2.252 -4.326,0 0,2.252 z"
           inkscape:connector-curvature="0"
           id="path182"
           style="fill:#ffffff;fill-opacity:1;fill-rule:nonzero;stroke:none" /><path
           d="m 19.24,31.057 4.326,0 0,-2.252 -4.326,0 0,2.252 z"
           inkscape:connector-curvature="0"
           id="path184"
           style="fill:#ffffff;fill-opacity:1;fill-rule:nonzero;stroke:none" /><path
           d="m 7.959,35.551 13.289,0"
           inkscape:connector-curvature="0"
           id="path186"
           style="fill:#231f20;fill-opacity:1;fill-rule:nonzero;stroke:none" /><path
           d="m 7.959,35.551 13.289,0"
           inkscape:connector-curvature="0"
           id="path188"
           style="fill:none;stroke:#ffffff;stroke-width:0.40000001;stroke-linecap:butt;stroke-linejoin:miter;stroke-miterlimit:4;stroke-opacity:1;stroke-dasharray:none" /><path
           d="m 7.959,29.931 13.289,0"
           inkscape:connector-curvature="0"
           id="path190"
           style="fill:#231f20;fill-opacity:1;fill-rule:nonzero;stroke:none" /><path
           d="m 7.959,29.931 13.289,0"
           inkscape:connector-curvature="0"
           id="path192"
           style="fill:none;stroke:#ffffff;stroke-width:0.40000001;stroke-linecap:butt;stroke-linejoin:miter;stroke-miterlimit:4;stroke-opacity:1;stroke-dasharray:none" /><path
           d="m 7.187,29.931 14.061,5.62"
           inkscape:connector-curvature="0"
           id="path194"
           style="fill:#231f20;fill-opacity:1;fill-rule:nonzero;stroke:none" /><path
           d="m 7.187,29.931 14.061,5.62"
           inkscape:connector-curvature="0"
           id="path196"
           style="fill:none;stroke:#ffffff;stroke-width:0.40000001;stroke-linecap:butt;stroke-linejoin:miter;stroke-miterlimit:4;stroke-opacity:1;stroke-dasharray:none" /><path
           d="m 7.187,35.551 14.061,-5.62"
           inkscape:connector-curvature="0"
           id="path198"
           style="fill:#231f20;fill-opacity:1;fill-rule:nonzero;stroke:none" /><path
           d="m 7.187,35.551 14.061,-5.62"
           inkscape:connector-curvature="0"
           id="path200"
           style="fill:none;stroke:#ffffff;stroke-width:0.40000001;stroke-linecap:butt;stroke-linejoin:miter;stroke-miterlimit:4;stroke-opacity:1;stroke-dasharray:none" /><path
           d="m 9.051,15.218 0,2.258 0.384,0 -0.564,0.851 -0.566,-0.851 0.383,0 0,-2.258 0.363,0"
           inkscape:connector-curvature="0"
           id="path202"
           style="fill:#ffffff;fill-opacity:1;fill-rule:nonzero;stroke:none" /><path
           d="m 7.901,14.892 -1.597,1.595 0.271,0.274 -1.003,0.201 0.203,-1.002 0.271,0.271 1.597,-1.597 0.258,0.258"
           inkscape:connector-curvature="0"
           id="path204"
           style="fill:#ffffff;fill-opacity:1;fill-rule:nonzero;stroke:none" /><path
           d="m 7.316,13.847 -2.257,0 0,0.383 -0.852,-0.565 0.852,-0.566 0,0.382 2.257,0 0,0.366"
           inkscape:connector-curvature="0"
           id="path206"
           style="fill:#ffffff;fill-opacity:1;fill-rule:nonzero;stroke:none" /><path
           d="M 7.643,12.694 6.046,11.097 5.775,11.368 5.572,10.364 6.575,10.569 6.304,10.841 7.901,12.437 7.643,12.694"
           inkscape:connector-curvature="0"
           id="path208"
           style="fill:#ffffff;fill-opacity:1;fill-rule:nonzero;stroke:none" /><path
           d="m 8.688,12.11 0,-2.257 -0.383,0 0.566,-0.852 0.564,0.852 -0.384,0 0,2.257 -0.363,0"
           inkscape:connector-curvature="0"
           id="path210"
           style="fill:#ffffff;fill-opacity:1;fill-rule:nonzero;stroke:none" /><path
           d="m 10.097,14.634 1.596,1.597 0.271,-0.271 0.204,1.002 -1.003,-0.201 0.271,-0.274 -1.596,-1.595 0.257,-0.258"
           inkscape:connector-curvature="0"
           id="path212"
           style="fill:#ffffff;fill-opacity:1;fill-rule:nonzero;stroke:none" /><path
           d="m 10.251,11.773 c 1.06,0.74 1.316,2.197 0.574,3.255 -0.74,1.059 -2.197,1.315 -3.255,0.575 -1.059,-0.741 -1.315,-2.2 -0.574,-3.256 0.74,-1.059 2.199,-1.317 3.255,-0.574"
           inkscape:connector-curvature="0"
           id="path214"
           style="fill:#ffffff;fill-opacity:1;fill-rule:nonzero;stroke:none" /><path
           d="m 10.048,12.437 1.596,-1.596 -0.27,-0.272 1.002,-0.205 -0.204,1.004 -0.269,-0.271 -1.597,1.597 -0.258,-0.257"
           inkscape:connector-curvature="0"
           id="path216"
           style="fill:#ffffff;fill-opacity:1;fill-rule:nonzero;stroke:none" /><path
           d="m 19.014,15.218 0,2.258 -0.384,0 0.564,0.851 0.566,-0.851 -0.383,0 0,-2.258 -0.363,0"
           inkscape:connector-curvature="0"
           id="path218"
           style="fill:#ffffff;fill-opacity:1;fill-rule:nonzero;stroke:none" /><path
           d="m 20.164,14.892 1.597,1.595 -0.271,0.274 1.002,0.201 -0.203,-1.002 -0.27,0.271 -1.597,-1.597 -0.258,0.258"
           inkscape:connector-curvature="0"
           id="path220"
           style="fill:#ffffff;fill-opacity:1;fill-rule:nonzero;stroke:none" /><path
           d="m 20.748,13.847 2.258,0 0,0.383 0.851,-0.565 -0.851,-0.566 0,0.382 -2.258,0 0,0.366"
           inkscape:connector-curvature="0"
           id="path222"
           style="fill:#ffffff;fill-opacity:1;fill-rule:nonzero;stroke:none" /><path
           d="m 20.422,12.694 1.597,-1.597 0.27,0.271 0.203,-1.004 -1.002,0.205 0.271,0.272 -1.597,1.596 0.258,0.257"
           inkscape:connector-curvature="0"
           id="path224"
           style="fill:#ffffff;fill-opacity:1;fill-rule:nonzero;stroke:none" /><path
           d="m 19.377,12.11 0,-2.257 0.383,0 -0.566,-0.852 -0.564,0.852 0.384,0 0,2.257 0.363,0"
           inkscape:connector-curvature="0"
           id="path226"
           style="fill:#ffffff;fill-opacity:1;fill-rule:nonzero;stroke:none" /><path
           d="m 17.968,14.634 -1.597,1.597 -0.27,-0.271 -0.205,1.002 1.004,-0.201 -0.271,-0.274 1.596,-1.595 -0.257,-0.258"
           inkscape:connector-curvature="0"
           id="path228"
           style="fill:#ffffff;fill-opacity:1;fill-rule:nonzero;stroke:none" /><path
           d="m 17.813,11.773 c -1.059,0.74 -1.315,2.197 -0.574,3.255 0.74,1.059 2.198,1.315 3.256,0.575 1.059,-0.741 1.315,-2.2 0.574,-3.256 -0.741,-1.059 -2.2,-1.317 -3.256,-0.574"
           inkscape:connector-curvature="0"
           id="path230"
           style="fill:#ffffff;fill-opacity:1;fill-rule:nonzero;stroke:none" /><path
           d="m 18.017,12.437 -1.596,-1.596 0.269,-0.272 -1.001,-0.205 0.203,1.004 0.27,-0.271 1.596,1.597 0.259,-0.257"
           inkscape:connector-curvature="0"
           id="path232"
           style="fill:#ffffff;fill-opacity:1;fill-rule:nonzero;stroke:none" /><path
           d="m 10.208,13.636 7.649,0"
           inkscape:connector-curvature="0"
           id="path234"
           style="fill:none;stroke:#ffffff;stroke-width:0.97299999;stroke-linecap:butt;stroke-linejoin:miter;stroke-miterlimit:4;stroke-opacity:1;stroke-dasharray:none" /><path
           d="m 14.585,13.657 c 0,-1.64 -0.281,-2.97 -0.629,-2.97 -0.348,0 -0.63,1.33 -0.63,2.97 0,1.641 0.282,2.969 0.63,2.969 0.348,0 0.629,-1.328 0.629,-2.969 z"
           inkscape:connector-curvature="0"
           id="path236"
           style="fill:none;stroke:#ffffff;stroke-width:0.40000001;stroke-linecap:butt;stroke-linejoin:miter;stroke-miterlimit:4;stroke-opacity:1;stroke-dasharray:none" /><path
           d="m 24.72,5.439 -21.488,0 0,16.875 21.488,0 0,-16.875 z"
           inkscape:connector-curvature="0"
           id="path238"
           style="fill:none;stroke:#ffffff;stroke-width:0.40000001;stroke-linecap:butt;stroke-linejoin:miter;stroke-miterlimit:4;stroke-opacity:1;stroke-dasharray:1.8, 1.8;stroke-dashoffset:0" /></g></g></g></svg>