<?xml version="1.0" encoding="UTF-8" standalone="no"?>
<!-- Created with Inkscape (http://www.inkscape.org/) -->

<svg
   xmlns:dc="http://purl.org/dc/elements/1.1/"
   xmlns:cc="http://creativecommons.org/ns#"
   xmlns:rdf="http://www.w3.org/1999/02/22-rdf-syntax-ns#"
   xmlns:svg="http://www.w3.org/2000/svg"
   xmlns="http://www.w3.org/2000/svg"
   xmlns:inkscape="http://www.inkscape.org/namespaces/inkscape"
   version="1.1"
   width="46.487499"
   height="45.825001"
   id="svg2"
   xml:space="preserve"><metadata
     id="metadata8"><rdf:RDF><cc:Work
         rdf:about=""><dc:format>image/svg+xml</dc:format><dc:type
           rdf:resource="http://purl.org/dc/dcmitype/StillImage" /></cc:Work></rdf:RDF></metadata><defs
     id="defs6" /><g
     transform="matrix(1.25,0,0,-1.25,0,45.825)"
     id="g10"><g
       transform="scale(0.1,0.1)"
       id="g12"><path
         d="m 306.246,198.77 0,163.593"
         inkscape:connector-curvature="0"
         id="path14"
         style="fill:none;stroke:#000000;stroke-width:4;stroke-linecap:butt;stroke-linejoin:miter;stroke-miterlimit:4;stroke-opacity:1;stroke-dasharray:none" /><path
         d="m 306.246,201.395 0,112.23"
         inkscape:connector-curvature="0"
         id="path16"
         style="fill:none;stroke:#000000;stroke-width:20;stroke-linecap:butt;stroke-linejoin:miter;stroke-miterlimit:4;stroke-opacity:1;stroke-dasharray:none" /><path
         d="m 300.992,346.645 10,0 0,20 -10,0 0,-20 z"
         inkscape:connector-curvature="0"
         id="path18"
         style="fill:#000000;fill-opacity:1;fill-rule:nonzero;stroke:none" /><path
         d="m 63.7383,198.77 0,163.593"
         inkscape:connector-curvature="0"
         id="path20"
         style="fill:none;stroke:#000000;stroke-width:4;stroke-linecap:butt;stroke-linejoin:miter;stroke-miterlimit:4;stroke-opacity:1;stroke-dasharray:none" /><path
         d="m 63.7383,201.395 0,112.23"
         inkscape:connector-curvature="0"
         id="path22"
         style="fill:none;stroke:#000000;stroke-width:20;stroke-linecap:butt;stroke-linejoin:miter;stroke-miterlimit:4;stroke-opacity:1;stroke-dasharray:none" /><path
         d="m 58.4961,346.645 10,0 0,20 -10,0 0,-20 z"
         inkscape:connector-curvature="0"
         id="path24"
         style="fill:#000000;fill-opacity:1;fill-rule:nonzero;stroke:none" /><path
         d="m 369.859,178.293 c 0,-39.516 -82.343,-71.527 -183.925,-71.527 -101.5824,0 -183.93009,32.011 -183.93009,71.527 l 0,-104.7696 c 0,-39.5117 82.34769,-71.53121 183.93009,-71.53121 101.582,0 183.925,32.01951 183.925,71.53121 l 0,104.7696"
         inkscape:connector-curvature="0"
         id="path26"
         style="fill:#000000;fill-opacity:1;fill-rule:nonzero;stroke:none" /><path
         d="m 369.859,178.293 c 0,-39.516 -82.343,-71.527 -183.925,-71.527 -101.5824,0 -183.93009,32.011 -183.93009,71.527 l 0,-104.7696 c 0,-39.5117 82.34769,-71.53121 183.93009,-71.53121 101.582,0 183.925,32.01951 183.925,71.53121 l 0,104.7696 z"
         inkscape:connector-curvature="0"
         id="path28"
         style="fill:none;stroke:#ffffff;stroke-width:4;stroke-linecap:butt;stroke-linejoin:miter;stroke-miterlimit:4;stroke-opacity:1;stroke-dasharray:none" /><path
         d="m 185.934,106.766 c 101.582,0 183.925,32.011 183.925,71.527 0,39.5 -82.343,71.519 -183.925,71.519 -101.5824,0 -183.93009,-32.019 -183.93009,-71.519 0,-39.516 82.34769,-71.527 183.93009,-71.527"
         inkscape:connector-curvature="0"
         id="path30"
         style="fill:#000000;fill-opacity:1;fill-rule:nonzero;stroke:none" /><path
         d="m 185.934,106.766 c 101.582,0 183.925,32.011 183.925,71.527 0,39.5 -82.343,71.519 -183.925,71.519 -101.5824,0 -183.93009,-32.019 -183.93009,-71.519 0,-39.516 82.34769,-71.527 183.93009,-71.527 z"
         inkscape:connector-curvature="0"
         id="path32"
         style="fill:none;stroke:#ffffff;stroke-width:4;stroke-linecap:butt;stroke-linejoin:miter;stroke-miterlimit:4;stroke-opacity:1;stroke-dasharray:none" /><path
         d="m 143.926,206.258 15.191,-22.785 -57.429,-13.266 12.55,10.445 -88.7458,15.164 22.2617,16.692 85.6331,-14.504 10.539,8.254"
         inkscape:connector-curvature="0"
         id="path34"
         style="fill:#ffffff;fill-opacity:1;fill-rule:nonzero;stroke:none" /><path
         d="m 224.723,151.004 -10.352,23.488 51.797,10.356 -8.984,-8.051 86.328,-14.738 -20.723,-16.582 -85.801,16.113 -12.265,-10.586"
         inkscape:connector-curvature="0"
         id="path36"
         style="fill:#ffffff;fill-opacity:1;fill-rule:nonzero;stroke:none" /><path
         d="m 196.422,218.691 58.008,15.883 0.683,-24.863 -14.492,2.766 -28.32,-23.481 -27.024,3.934 29.231,22.98 -18.086,2.781"
         inkscape:connector-curvature="0"
         id="path38"
         style="fill:#ffffff;fill-opacity:1;fill-rule:nonzero;stroke:none" /><path
         d="m 171.547,129.598 -55.25,-10.348 -2.07,25.547 15.886,-3.457 30.41,25.972 26.907,-4.558 -32.453,-28.313 16.57,-4.843"
         inkscape:connector-curvature="0"
         id="path40"
         style="fill:#ffffff;fill-opacity:1;fill-rule:nonzero;stroke:none" /></g></g></svg>